<svg xmlns="http://www.w3.org/2000/svg" viewBox="0 0 1080 1080.07"><defs><style>.cls-1{fill:none;}.cls-2{fill:#f7b543;}.cls-3{fill:#e26551;}.cls-4{fill:#eaebe2;}.cls-5{fill:#00566a;}.cls-6{fill:#ebece3;}.cls-7{fill:#889d50;}.cls-8{fill:#0c1a29;}</style></defs><g id="Layer_2" data-name="Layer 2"><g id="Layer_1-2" data-name="Layer 1"><rect class="cls-1" width="1080" height="1080"/><circle id="Ellipse_13" data-name="Ellipse 13" class="cls-2" cx="546.17" cy="373.44" r="373.44"/><g id="Fill_33" data-name="Fill 33"><path class="cls-3" d="M922.43,1057.75l135.25-361.54L696.14,561,560.89,922.5Z"/><path class="cls-4" d="M932.59,1080.07l-394-147.41,147.4-394,394,147.41ZM583.21,912.33l329,123.1,123.1-329.05L706.3,583.28Z"/></g><g id="Group_885" data-name="Group 885"><path id="Path_1012" data-name="Path 1012" class="cls-5" d="M378.88,580.59C378.88,685.22,294.06,770,189.43,770S0,685.2,0,580.58,84.81,391.15,189.43,391.14,378.88,476,378.88,580.59Z"/><path id="Path_1013" data-name="Path 1013" class="cls-6" d="M328,580.59A138.68,138.68,0,1,1,189.34,441.92h0A138.68,138.68,0,0,1,328,580.59Z"/><path id="Path_1014" data-name="Path 1014" class="cls-7" d="M278.09,580.56a88.7,88.7,0,1,1-88.69-88.7,88.69,88.69,0,0,1,88.69,88.7Z"/><path id="Path_1015" data-name="Path 1015" class="cls-8" d="M227.64,580.59a38.25,38.25,0,1,1-38.24-38.24,38.25,38.25,0,0,1,38.24,38.24Z"/></g></g></g></svg>