<svg xmlns="http://www.w3.org/2000/svg" viewBox="0 0 1080 1080"><defs><style>.cls-1{fill:#681720;}.cls-2{fill:#f7b543;}.cls-3{fill:#eaebe2;}.cls-4{fill:#e16550;}.cls-5{fill:none;}</style></defs><g id="Layer_2" data-name="Layer 2"><g id="Layer_1-2" data-name="Layer 1"><g id="Group_971" data-name="Group 971"><path id="Polygon_3" data-name="Polygon 3" class="cls-1" d="M854.94,4.14,1077.19,921,115.31,589.82Z"/><g id="Path_1011" data-name="Path 1011"><path class="cls-2" d="M957.6,730.42c36.29,139.75-47.57,282.46-187.32,318.75s-282.46-47.56-318.75-187.31Z"/><path class="cls-3" d="M704.09,1075.86A279.93,279.93,0,0,1,433.94,866.42l-4.56-17.58L970.61,708.27l4.57,17.58c38.76,149.22-51.11,302.15-200.33,340.91A281.12,281.12,0,0,1,704.09,1075.86ZM474.32,874.71a243.29,243.29,0,0,0,291.39,156.88C889.63,999.41,966.5,876.74,943.92,752.74Z"/></g><path id="Path_1017" data-name="Path 1017" class="cls-4" d="M304,605.69C131.44,522,57.74,488,15.36,396.75-44,268.93,119.46,111.81,245,281.12c52.91-204,271.54-118.86,256.2,21.2-10.58,96.34-64.11,163-192.75,305.2"/></g><rect class="cls-5" width="1080" height="1080"/></g></g></svg>