<svg xmlns="http://www.w3.org/2000/svg" width="357" height="357" viewBox="0 0 357 357"><defs><style>.a{fill:#f7b543;}.b,.e{fill:none;}.c{fill:#01566b;stroke:#b8cfb8;stroke-miterlimit:10;}.c,.e{stroke-width:8px;}.d{fill:#e16550;}.e{stroke:#ebece3;stroke-linecap:round;stroke-linejoin:round;}</style></defs><rect class="a" width="241.927" height="241.927" transform="matrix(0.963, 0.271, -0.271, 0.963, 73.158, 0)"/><rect class="b" width="357" height="357"/><path class="c" d="M625.86,374.852a70.923,70.923,0,1,1,67.021,74.621c-10.027-.538-15.213-2.6-23.655-6.826L634.217,455.7l9.972-29.352C630.755,412.638,624.75,395.526,625.86,374.852Z" transform="translate(-418.891 -206.006)"/><path class="d" d="M175.4,802.009c-52.048-25.246-74.28-35.491-87.064-63.026-17.891-38.555,31.4-85.948,69.256-34.878,15.958-61.524,81.905-35.854,77.278,6.394-3.19,29.059-19.339,49.158-58.141,92.061" transform="translate(-56.603 -446.847)"/><g transform="translate(240.423 144.486)"><g transform="translate(17.057)"><path class="e" d="M778.931,447.316a26.54,26.54,0,0,1,47.392,18.255" transform="translate(-778.931 -437.1)"/><path class="e" d="M908.179,491.475l-9.516,12.731-12.78-9.553" transform="translate(-850.529 -473.501)"/></g><g transform="translate(0 24.524)"><path class="e" d="M805.611,536.306a26.54,26.54,0,0,1-47.392-18.254" transform="translate(-747.962 -515.817)"/><path class="e" d="M727.329,524.022l9.516-12.731,12.78,9.553" transform="translate(-727.329 -511.291)"/></g></g></svg>