<svg xmlns="http://www.w3.org/2000/svg" viewBox="0 0 1080 1080"><defs><style>.cls-1{fill:#e16550;}.cls-2{fill:#96241e;}.cls-3{fill:#00566a;}.cls-4{fill:#ebece3;}.cls-5{fill:none;}</style></defs><g id="Layer_2" data-name="Layer 2"><g id="Layer_1-2" data-name="Layer 1"><g id="Group_973" data-name="Group 973"><rect id="Rectangle_38" data-name="Rectangle 38" class="cls-1" x="259.21" y="113.43" width="631.97" height="665.22" transform="translate(-145.96 347.35) rotate(-30)"/><g id="Path_1024" data-name="Path 1024"><path class="cls-2" d="M146.46,803.48c-.77,0-1.55,0-2.32-.09A31.65,31.65,0,0,1,121,790.59L6.16,634.6a31.65,31.65,0,1,1,51-37.52L150,723.28,480.32,390.21a31.65,31.65,0,0,1,44.94,44.57L168.93,794.11A31.66,31.66,0,0,1,146.46,803.48Z"/></g><g id="Polygon_4" data-name="Polygon 4"><path class="cls-3" d="M1045.7,810.45,660.44,1051.23l5-420.59Z"/><path class="cls-4" d="M681,655.49l-4.36,367,336.14-210.09L681,655.49m-31.06-49.7,428.73,202.73L644.27,1080Z"/></g></g><rect class="cls-5" width="1080" height="1080"/></g></g></svg>