<svg xmlns="http://www.w3.org/2000/svg" width="532" height="531.896" viewBox="0 0 532 531.896">
  <g id="Group_15" data-name="Group 15" transform="translate(-8108.867 -277.961)">
    <g id="Group_13" data-name="Group 13" transform="translate(8345.671 392.111)">
      <g id="Group_12" data-name="Group 12" transform="translate(0)">
        <circle id="Ellipse_9" data-name="Ellipse 9" cx="19.15" cy="19.15" r="19.15" transform="translate(1.776 1.776)" fill="#b8cfb8"/>
        <path id="Path_911" data-name="Path 911" d="M8796.536,641.213a20.926,20.926,0,1,1,20.926-20.926A20.95,20.95,0,0,1,8796.536,641.213Zm0-38.3a17.374,17.374,0,1,0,17.373,17.374A17.394,17.394,0,0,0,8796.536,602.913Z" transform="translate(-8775.61 -599.361)" fill="#ebece3"/>
      </g>
    </g>
    <g id="Group_14" data-name="Group 14" transform="translate(8260.836 304.763)">
      <path id="Path_912" data-name="Path 912" d="M8722.285,458.307l27.7-18.976c-2.472-7.606-2.284-7.028-4.755-14.634l-33.563.929-7.777-10.706,11.254-31.632-12.447-9.044-26.607,20.478-12.585-4.089-9.488-32.206h-15.388l-9.488,32.206-12.585,4.089-26.606-20.478-12.449,9.044,11.256,31.632-7.779,10.706-33.562-.929c-2.473,7.607-2.283,7.028-4.754,14.634l27.7,18.976v13.233l-27.7,18.976c2.471,7.607,2.281,7.028,4.754,14.634l33.563-.929,7.779,10.706L8577.5,546.561l12.449,9.044,26.606-20.479,12.585,4.089,9.488,32.206h15.388l9.488-32.206,12.585-4.089,26.607,20.479,12.447-9.044-11.254-31.633,7.777-10.706,33.563.929c2.471-7.607,2.283-7.027,4.755-14.634l-27.7-18.976Zm-75.963,47.139a40.523,40.523,0,1,1,40.521-40.523A40.569,40.569,0,0,1,8646.322,505.447Z" transform="translate(-8540.558 -356.65)" fill="#b8cfb8"/>
      <path id="Path_913" data-name="Path 913" d="M8651.529,569.974h-18.041l-9.6-32.582-10.8-3.511L8586.166,554.6l-14.6-10.605,11.384-32-6.677-9.192-33.953.94-5.577-17.161,28.022-19.2V456.019l-28.022-19.2,5.577-17.161,33.953.939,6.677-9.192-11.384-32,14.6-10.606,26.917,20.718,10.8-3.51,9.6-32.583h18.041l9.6,32.583,10.8,3.51,26.918-20.718,14.6,10.606-11.386,32,6.678,9.191,33.954-.939,5.576,17.161-28.021,19.2v11.361l28.021,19.2-5.576,17.161-33.954-.94-6.678,9.192,11.386,32-14.6,10.605-26.918-20.718-10.8,3.511Zm-15.384-3.552h12.73l9.375-31.83,14.368-4.668,26.295,20.239,10.3-7.483-11.124-31.263,8.877-12.221,33.171.918,3.933-12.108L8716.7,469.253V454.147l27.373-18.754-3.933-12.108-33.171.918-8.877-12.221,11.124-31.263-10.3-7.483-26.295,20.239-14.368-4.668-9.375-31.83h-12.73l-9.38,31.83-14.364,4.668-26.3-20.239-10.3,7.483,11.125,31.263-8.881,12.22-33.168-.918-3.936,12.108,27.375,18.754v15.106l-27.375,18.754,3.936,12.108,33.168-.918,8.881,12.22L8575.8,542.681l10.3,7.483,26.3-20.239,14.364,4.668ZM8642.509,504a42.3,42.3,0,1,1,42.3-42.3A42.345,42.345,0,0,1,8642.509,504Zm0-81.045a38.747,38.747,0,1,0,38.746,38.747A38.79,38.79,0,0,0,8642.509,422.953Z" transform="translate(-8536.746 -353.426)" fill="#ebece3"/>
    </g>
    <path id="Path_914" data-name="Path 914" d="M8980.793,1149.832c-2.2-7.051-2.416-7.743-4.619-14.794l20.936-18.1c-4.509-8.025-3.6-6.412-8.114-14.437l-26.343,8.477c-4.878-5.546-5.356-6.09-10.237-11.636l11.767-25.047-13.286-9.888-20.615,18.459-14.086-6.466.559-27.667-16.156-3.629-11.326,25.248-15.5-.179-10.741-25.5-16.237,3.257-.078,27.672-14.229,6.14-20.186-18.929-13.51,9.579,11.184,25.312-10.5,11.4-26.142-9.082c-4.692,7.918-3.75,6.327-8.443,14.245l20.513,18.574c-2.364,7-2.594,7.685-4.958,14.684l-27.574,2.335c-1.068,9.143-.854,7.306-1.92,16.449l26.293,8.625,1.442,15.431-24.241,13.349c2.744,8.787,2.194,7.021,4.938,15.808l27.528-2.815c3.62,6.439,3.974,7.071,7.594,13.51l-16.715,22.054c6.079,6.911,4.858,5.522,10.939,12.434l24-13.769c5.927,4.411,6.509,4.843,12.433,9.253l-6.3,26.946,15.05,6.91,16.329-22.342,15.12,3.4,5.206,27.179,16.56.191,5.828-27.052,15.2-3.047,15.808,22.712,15.207-6.561-5.677-27.083,12.642-8.965,23.679,14.318,11.225-12.178-16.2-22.433,7.9-13.332,27.457,3.449c2.944-8.721,2.354-6.969,5.3-15.69l-23.926-13.9c.855-7.337.94-8.057,1.8-15.394l26.487-8.017c-.855-9.166-.685-7.324-1.542-16.489Zm-57,23.739a43.4,43.4,0,1,1-43.4-43.4A43.4,43.4,0,0,1,8923.8,1173.571Zm-14.795,0a28.605,28.605,0,1,1-28.6-28.6A28.6,28.6,0,0,1,8909,1173.571Z" transform="translate(-414.036 -494.403)" fill="#d94d3f"/>
    <path id="Path_915" data-name="Path 915" d="M8885.049,1300.581l-19.461-.224-5.258-27.46-12.852-2.887-16.5,22.573-17.688-8.12,6.365-27.225-10.564-7.863-24.252,13.911-12.855-14.613,16.889-22.282-6.453-11.48-27.814,2.844-5.8-18.578,24.49-13.487-1.225-13.113-26.566-8.714,2.257-19.331,27.858-2.359,4.215-12.478-20.725-18.766,9.926-16.742,26.409,9.176,8.925-9.685-11.3-25.573,15.877-11.258,20.395,19.125,12.09-5.217.08-27.959,19.083-3.827,10.852,25.767,13.17.151,11.444-25.51,18.989,4.265-.567,27.953,11.969,5.495,20.829-18.65,15.614,11.62-11.885,25.307,8.7,9.888,26.612-8.565,9.536,16.966-21.15,18.284,3.924,12.571,27.8,3,1.809,19.378-26.758,8.1-1.527,13.081,24.174,14.047-6.227,18.439-27.74-3.485-6.717,11.329,16.37,22.665-13.188,14.313-23.926-14.467-10.744,7.618,5.737,27.364-17.869,7.711-15.972-22.947-12.914,2.589Zm-16.52-3.742,13.659.157,5.769-26.771,17.479-3.505,15.645,22.477,12.542-5.411-5.619-26.8,14.541-10.312,23.438,14.17,9.256-10.045-16.037-22.2,9.092-15.335,27.172,3.413,4.371-12.941-23.68-13.759,2.068-17.707,26.209-7.934-1.27-13.6-27.227-2.939-5.313-17.016,20.718-17.91-6.692-11.906-26.069,8.389-11.773-13.385,11.641-24.788-10.957-8.155-20.4,18.268-16.2-7.438.556-27.38-13.326-2.993-11.209,24.987-17.826-.205-10.631-25.239-13.393,2.686-.076,27.386-16.369,7.063-19.977-18.733-11.141,7.9,11.068,25.05-12.08,13.109-25.87-8.988-6.964,11.75,20.3,18.382-5.705,16.89-27.289,2.311-1.583,13.567,26.021,8.535,1.659,17.75-23.989,13.21,4.07,13.038,27.243-2.786,8.736,15.54-16.543,21.825,9.023,10.255,23.754-13.626,14.3,10.644-6.236,26.667,12.415,5.7,16.157-22.11,17.393,3.907Zm8.359-81.772a45.175,45.175,0,1,1,45.175-45.175A45.225,45.225,0,0,1,8876.889,1215.068Zm0-86.8a41.623,41.623,0,1,0,41.623,41.623A41.67,41.67,0,0,0,8876.889,1128.27Zm0,72a30.381,30.381,0,1,1,30.381-30.38A30.414,30.414,0,0,1,8876.889,1200.273Zm0-57.21a26.829,26.829,0,1,0,26.83,26.829A26.858,26.858,0,0,0,8876.889,1143.064Z" transform="translate(-410.527 -490.725)" fill="#96241e"/>
    <path id="Path_916" data-name="Path 916" d="M8365.563,954.334c-2.488-5.217-3.2-6.7-5.684-11.916l16.994-26.187L8366.9,905.1l-27.886,14.036-11.226-6.951.14-31.218-14.412-3.971-15.87,26.883-13.2.221L8267.68,877.76l-14.271,4.451,1.183,31.2-10.984,7.322-28.341-13.094c-5.073,6.056-4.526,5.4-9.6,11.459l17.861,25.6c-2.314,5.3-2.972,6.8-5.282,12.1l-30.922,4.305c-.993,7.838-.886,6.992-1.88,14.83l28.869,11.883c.918,5.707,1.179,7.328,2.1,13.035l-23.685,20.339c3.4,7.131,3.035,6.361,6.436,13.492l30.711-5.611,8.811,9.832-8.928,29.915,12.709,7.87,22.8-21.323,12.729,3.507,8.661,29.993,14.947-.25,7.654-30.265,12.6-3.931,23.5,20.548,12.438-8.291-9.923-29.6c3.711-4.432,4.766-5.69,8.478-10.121l30.879,4.58c3.163-7.241,2.822-6.459,5.982-13.7L8368.869,998.3c.728-5.734.934-7.363,1.66-13.1l28.455-12.842c-1.256-7.8-1.12-6.958-2.374-14.759Zm-97.855,28.559a24.508,24.508,0,1,1,24.51,24.508A24.508,24.508,0,0,1,8267.707,982.893Z" transform="translate(-49.381 -386.276)" fill="#96241e"/>
    <path id="Path_917" data-name="Path 917" d="M8281.821,1086.9l-8.763-30.343-10.811-2.979-23.067,21.572-15.02-9.3,9.031-30.264-7.484-8.351-31.069,5.676-7.608-15.945,23.964-20.576-1.781-11.072L8180,973.294l2.221-17.526,31.282-4.356L8218,941.135l-18.07-25.9,11.343-13.543,28.672,13.248,9.33-6.22-1.2-31.561,16.865-5.26,16.958,26.645,11.213-.188,16.055-27.2,17.031,4.693-.141,31.583,9.535,5.9,28.212-14.2,11.79,13.156L8358.4,938.786l4.829,10.122,31.41,3.307,2.806,17.442-28.787,12.992-1.408,11.125,24.635,19.763-7.07,16.191-31.24-4.634-7.2,8.6,10.04,29.945-14.7,9.8-23.776-20.789-10.706,3.339-7.743,30.619Zm-20.546-37.274,14.645,4.035,8.561,29.642,12.228-.2,7.566-29.912,14.5-4.523L8342,1068.972l10.178-6.783-9.808-29.254,9.754-11.645,30.521,4.527,4.895-11.209L8363.475,995.3l1.911-15.071,28.122-12.692-1.943-12.075-30.685-3.231-6.541-13.711,16.8-25.881-8.164-9.108L8335.414,917.4l-12.916-8,.138-30.853-11.793-3.249-15.685,26.569-15.188.254L8263.4,876.1l-11.676,3.642,1.168,30.832-12.639,8.426-28.01-12.942-7.854,9.376,17.652,25.305-6.079,13.922-30.559,4.255-1.539,12.134,28.532,11.744,2.412,15-23.407,20.1,5.268,11.039,30.351-5.545,10.14,11.313-8.824,29.566,10.4,6.439Zm27.432-44.213a26.284,26.284,0,1,1,26.286-26.283A26.313,26.313,0,0,1,8288.707,1005.412Zm0-49.015a22.732,22.732,0,1,0,22.733,22.732A22.757,22.757,0,0,0,8288.707,956.4Z" transform="translate(-45.872 -382.512)" fill="#550f19"/>
    <path id="Path_918" data-name="Path 918" d="M8984.7,1229.41a6.38,6.38,0,0,0,5.285-.735c2.537-1.513,3.672-3.942,3.011-6.161l-5.811,3.463-2.138-3.587,9.936-5.922.885,1.489a10.763,10.763,0,0,1,1.65,5.764,10.092,10.092,0,0,1-5.291,8.712,11.222,11.222,0,0,1-8.839,1.432,11.348,11.348,0,0,1-6.935-5.36,11.041,11.041,0,0,1-1.271-8.735,11.327,11.327,0,0,1,5.352-7.061,10.62,10.62,0,0,1,6.553-1.658,9.6,9.6,0,0,1,5.228,1.945l-2.472,3.789a6.443,6.443,0,0,0-3.2-1.267,5.877,5.877,0,0,0-3.93.954,6.556,6.556,0,0,0-3.128,4.245,6.925,6.925,0,0,0,.882,5.363A7.192,7.192,0,0,0,8984.7,1229.41Z" transform="translate(-558.375 -601.66)" fill="#fff"/>
    <path id="Path_919" data-name="Path 919" d="M9053.516,1211.242a6.386,6.386,0,0,0-1.037.2c-2.76.781-3.477,2.844-2.733,5.469l1.746,6.18-4.265,1.206-4.129-14.6,4.238-1.2.635,2.242.027-.007a4.683,4.683,0,0,1,3.446-3.574,2.565,2.565,0,0,1,.879-.13Z" transform="translate(-602.423 -599.093)" fill="#fff"/>
    <path id="Path_920" data-name="Path 920" d="M9081.784,1205.02a8.31,8.31,0,0,1,5.757-2.663,8.226,8.226,0,0,1,5.982,1.906,7.377,7.377,0,0,1,2.729,5.439,7.54,7.54,0,0,1-2.059,5.849,8.333,8.333,0,0,1-5.729,2.632,8.216,8.216,0,0,1-6.008-1.876,7.856,7.856,0,0,1-.673-11.288Zm3.727,8.195a3.757,3.757,0,0,0,6.2-3.2,3.768,3.768,0,0,0-1.247-2.684,3.581,3.581,0,0,0-2.735-.941,3.512,3.512,0,0,0-2.567,1.27,3.777,3.777,0,0,0-.908,2.817A3.909,3.909,0,0,0,9085.511,1213.215Z" transform="translate(-626.029 -596.07)" fill="#fff"/>
    <path id="Path_921" data-name="Path 921" d="M9158.426,1206.581l4.289,1.122-8.458,13.473-4.206-1.1-.544-10.158-.028-.007-5.477,8.584-4.15-1.086-.724-15.874,4.4,1.15.261,9.79.027.007,5.128-8.38,3.96,1.035.349,9.9Z" transform="translate(-664.347 -595.551)" fill="#fff"/>
    <path id="Path_922" data-name="Path 922" d="M8680.4,533.476a9.729,9.729,0,0,1,2.249-7.4,9.955,9.955,0,0,1,4.6-3.209,8.132,8.132,0,0,1,5.425-.006l-1.014,3.921a5.354,5.354,0,0,0-5.984,1.794,5.609,5.609,0,0,0-1.284,4.372,6.007,6.007,0,0,0,2.265,4.028,6.165,6.165,0,0,0,4.444,1.472,5.719,5.719,0,0,0,4.542-8.486l3.668-1.788a8.137,8.137,0,0,1,1.084,5.4,10.328,10.328,0,0,1-2.261,5.214,10.02,10.02,0,0,1-17.735-5.311Z" transform="translate(-368.508 -157.619)" fill="#fff"/>
    <path id="Path_923" data-name="Path 923" d="M8735.311,507.878a7.615,7.615,0,0,1,8.9-5.165,6.443,6.443,0,0,1,4.256,3.2,6.59,6.59,0,0,1,.667,5.385,7.289,7.289,0,0,1-3.463,4.295,7.192,7.192,0,0,1-5.439.871,6.874,6.874,0,0,1-4.922-8.583Zm6.108,4.97a3.29,3.29,0,0,0,3.617-4.928,3.3,3.3,0,0,0-2.024-1.617,3.127,3.127,0,0,0-2.507.328,3.078,3.078,0,0,0-1.521,2,3.3,3.3,0,0,0,.388,2.561A3.413,3.413,0,0,0,8741.419,512.849Z" transform="translate(-403.753 -144.795)" fill="#fff"/>
    <path id="Path_924" data-name="Path 924" d="M8789.173,497.69l-1.675-7.166c-.357-1.525-1.363-2.337-2.84-1.991a2.328,2.328,0,0,0-1.737,3.061l1.676,7.166-3.776.883-3.021-12.928,3.753-.877.4,1.694.025-.006a3.459,3.459,0,0,1,.987-1.558,4.326,4.326,0,0,1,2.216-1.232,4.255,4.255,0,0,1,3.831.662,5.778,5.778,0,0,1,2.04,3.379l1.878,8.037Z" transform="translate(-431.35 -133.225)" fill="#fff"/>
    <path id="Path_925" data-name="Path 925" d="M8835.15,495.208l.533-7.339c.113-1.562-.605-2.636-2.119-2.746a2.327,2.327,0,0,0-2.568,2.406l-.53,7.339-3.868-.281.959-13.241,3.844.279-.124,1.736.023,0a3.482,3.482,0,0,1,1.409-1.194,4.316,4.316,0,0,1,2.479-.518,4.255,4.255,0,0,1,3.461,1.772,5.782,5.782,0,0,1,.943,3.832l-.6,8.232Z" transform="translate(-462.817 -131.15)" fill="#fff"/>
    <path id="Path_926" data-name="Path 926" d="M8874.574,498.721a3.115,3.115,0,0,0,2.118,3.619,3.552,3.552,0,0,0,3.332-.417l1.958,2.729c-1.771,1.475-3.892,1.72-6.419.743a7.4,7.4,0,0,1-4.148-3.683,6.966,6.966,0,0,1,3.559-9.261,6.853,6.853,0,0,1,5.372-.107,6.311,6.311,0,0,1,3.774,8.578c-.225.58-.42,1.011-.55,1.281Zm6.348-.289a2.621,2.621,0,0,0-1.809-3.179,2.957,2.957,0,0,0-3.523,1.116Z" transform="translate(-491.296 -137.922)" fill="#fff"/>
    <path id="Path_927" data-name="Path 927" d="M8910.386,522.407a6.995,6.995,0,0,1,6.142-7.76,7.037,7.037,0,0,1,5.238,1.528c2.334,1.819,3.339,4.493,2.421,7.087l-3.557-.976a2.94,2.94,0,0,0-1.049-3.307,3.374,3.374,0,0,0-4.141,5.315,2.968,2.968,0,0,0,3.521.254l1.837,3.227a6.419,6.419,0,0,1-7.578-.671A7.028,7.028,0,0,1,8910.386,522.407Z" transform="translate(-516.805 -152.595)" fill="#fff"/>
    <path id="Path_928" data-name="Path 928" d="M8944.8,552.775a6.147,6.147,0,0,1-1.307-1.285c-2.11-2.737-1.722-5.328.739-7.226l4.037-3.112-1.457-1.89,2.659-2.049,1.486,1.929,3.288-2.534,2.338,3.032-3.288,2.534,2,2.6-2.659,2.049-2-2.6-3.662,2.824c-1.2.926-1.187,1.92-.263,3.121a3.385,3.385,0,0,0,.626.648Z" transform="translate(-537.314 -166.785)" fill="#fff"/>
    <path id="Path_929" data-name="Path 929" d="M8401.014,1029.595a8.938,8.938,0,0,1-4.184,4.529l-3.03,1.739,3.9,6.8-3.991,2.291-11.071-19.3,7.173-4.115a8.536,8.536,0,0,1,5.887-1.215,6.381,6.381,0,0,1,4.563,3.443A6.651,6.651,0,0,1,8401.014,1029.595Zm-9.385-4.083-2.834,1.626,2.869,5,2.86-1.64c1.774-1.018,2.738-2.651,1.775-4.328C8395.3,1024.423,8393.478,1024.451,8391.629,1025.511Z" transform="translate(-176.537 -478.625)" fill="#fff"/>
    <path id="Path_930" data-name="Path 930" d="M8454.317,1025.062l-4.378.865-4.484-22.72,4.376-.865Z" transform="translate(-217.044 -467.106)" fill="#fff"/>
    <path id="Path_931" data-name="Path 931" d="M8477.7,1036.342a4.059,4.059,0,0,1-1.146-3.426l0-.057a3.959,3.959,0,0,1,2.6-3.51,10.211,10.211,0,0,1,4.586-.458l1.5.149c.79.079,1.224-.25,1.3-.984.1-1.046-.662-1.95-2.246-2.108a3.651,3.651,0,0,0-3.566,1.7l-3.165-2.341c1.54-2.274,3.978-3.231,7.284-2.9,3.985.4,6.349,2.772,5.954,6.73l-.93,9.358-4.07-.4.186-1.866-.055-.034a5.2,5.2,0,0,1-4.741,1.728A5.515,5.515,0,0,1,8477.7,1036.342Zm8.4-4.133.033-.339-2.656-.264c-1.275-.126-2.352.366-2.463,1.5-.1,1.018.641,1.605,1.772,1.718A2.821,2.821,0,0,0,8486.1,1032.209Z" transform="translate(-237.079 -480.003)" fill="#fff"/>
    <path id="Path_932" data-name="Path 932" d="M8519.223,1029.024l4.329,2.266-.669,9.431,7.014-6.11,4.054,2.121-18.66,15.8-4.2-2.2,7.514-6.33Z" transform="translate(-259.365 -484.311)" fill="#fff"/>
    <path id="Path_933" data-name="Path 933" d="M8882.475,376.691a118.992,118.992,0,0,0-173.165-80.8l-1.687-3.124a122.6,122.6,0,0,1,178.332,83.21Z" transform="translate(-386.097 0)" fill="#fff"/>
    <path id="Path_934" data-name="Path 934" d="M9175.555,545.7l12.425,15.457,7.174-18.489Z" transform="translate(-687.836 -170.691)" fill="#fff"/>
    <path id="Path_935" data-name="Path 935" d="M8248.235,1388.929a123.34,123.34,0,0,1-29.433-3.582,122.705,122.705,0,0,1-89.5-88.591l3.441-.881a118.993,118.993,0,0,0,176.906,72.244l1.839,3.038A121.749,121.749,0,0,1,8248.235,1388.929Z" transform="translate(-13.176 -656.386)" fill="#fff"/>
    <path id="Path_936" data-name="Path 936" d="M8128.3,1272.49l-13.167-14.831-6.263,18.818Z" transform="translate(0 -631.743)" fill="#fff"/>
    <path id="Path_937" data-name="Path 937" d="M9433.045,1379.9l-1.8-3.063a119.053,119.053,0,0,0,20.6-189.973l2.413-2.607a122.6,122.6,0,0,1-21.218,195.643Z" transform="translate(-852.715 -584.412)" fill="#fff"/>
    <path id="Path_938" data-name="Path 938" d="M9408.583,1701.876l-10.62,16.749,19.814.825Z" transform="translate(-831.252 -918.189)" fill="#fff"/>
    <path id="Path_939" data-name="Path 939" d="M8664.921,639.732a3.723,3.723,0,0,1-.038-1.088,2.781,2.781,0,0,1,3.3-2.807l3.043.313.145-1.41,2,.206-.149,1.439,2.479.255-.234,2.262-2.477-.255-.2,1.939-2-.206.2-1.938-2.76-.283c-.9-.093-1.308.341-1.4,1.236a1.952,1.952,0,0,0,0,.535Z" transform="translate(-358.523 -230.063)" fill="#fff"/>
    <path id="Path_940" data-name="Path 940" d="M8671.405,655.539a4.491,4.491,0,0,1,.308,6.1,3.889,3.889,0,0,1-2.877,1.378,3.976,3.976,0,0,1-3.055-1.111,4.319,4.319,0,0,1-1.338-3,4.253,4.253,0,0,1,1.032-3.109,4.154,4.154,0,0,1,5.93-.267Zm-4.329,1.876a1.884,1.884,0,0,0-.5,1.413,1.928,1.928,0,0,0,2.133,1.835,1.994,1.994,0,0,0,1.419-.629,1.851,1.851,0,0,0,.515-1.414,1.821,1.821,0,0,0-.646-1.344,1.99,1.99,0,0,0-1.473-.492A2.056,2.056,0,0,0,8667.076,657.415Z" transform="translate(-358.25 -242.754)" fill="#fff"/>
    <path id="Path_941" data-name="Path 941" d="M8670.442,697.517a3.534,3.534,0,0,1,.825-3.811l1.438,1.356a1.808,1.808,0,0,0-.448,1.969c.158.554.521.85.822.764s.462-.392.4-1.419c-.111-1.918.467-3.049,1.715-3.4a2.2,2.2,0,0,1,1.979.359,3.353,3.353,0,0,1,1.273,1.864,3.27,3.27,0,0,1-.72,3.366l-1.418-1.332a1.522,1.522,0,0,0,.342-1.586c-.13-.455-.483-.722-.785-.636-.331.093-.468.486-.421,1.194.144,2.032-.331,3.256-1.667,3.635C8672.306,700.257,8670.974,699.392,8670.442,697.517Z" transform="translate(-361.987 -267.554)" fill="#fff"/>
    <path id="Path_942" data-name="Path 942" d="M8678.415,716.792l4.007-1.858a1.357,1.357,0,0,0,.828-1.9,1.386,1.386,0,0,0-1.976-.646l-4.034,1.871-.968-2.089,11.018-5.109.967,2.089-4.641,2.153.007.014a2.135,2.135,0,0,1,1.212.593,3.185,3.185,0,0,1,.688.917,2.6,2.6,0,0,1,.066,2.344,3.475,3.475,0,0,1-1.719,1.611l-4.494,2.084Z" transform="translate(-365.882 -276.699)" fill="#fff"/>
    <path id="Path_943" data-name="Path 943" d="M8691.18,741.116a2.134,2.134,0,0,1,.992-1.612l.023-.017a2.081,2.081,0,0,1,2.285-.152A5.25,5.25,0,0,1,8696.2,741l.442.646a.532.532,0,0,0,.831.182c.455-.312.561-.922.095-1.6a1.9,1.9,0,0,0-1.88-.842l-.121-2.049a3.743,3.743,0,0,1,3.608,1.912c1.178,1.717,1.016,3.459-.709,4.64l-4.07,2.793-1.2-1.754.813-.557,0-.033a2.691,2.691,0,0,1-2.283-1.3A2.842,2.842,0,0,1,8691.18,741.116Zm4.478,1.942.147-.1-.786-1.145c-.376-.548-.935-.809-1.426-.472-.443.3-.431.8-.1,1.284A1.473,1.473,0,0,0,8695.657,743.058Z" transform="translate(-375.487 -296.205)" fill="#fff"/>
    <path id="Path_944" data-name="Path 944" d="M8713.229,760.241a3.473,3.473,0,0,0-.334-.435c-1-1.1-2.136-.953-3.2.01l-2.494,2.266-1.549-1.705,5.895-5.354,1.541,1.694-.905.822.011.011a2.43,2.43,0,0,1,2.469.768,1.27,1.27,0,0,1,.264.379Z" transform="translate(-384.829 -307.626)" fill="#fff"/>
    <path id="Path_945" data-name="Path 945" d="M8724.889,774.352a1.852,1.852,0,0,0,.5,2.45,2.1,2.1,0,0,0,1.961.39l.576,1.915a3.541,3.541,0,0,1-3.766-.784,4.361,4.361,0,0,1-1.627-2.867,3.975,3.975,0,0,1,.975-3.109,4.18,4.18,0,0,1,5.874-.527,3.813,3.813,0,0,1,1.472,2.661,3.935,3.935,0,0,1-1,2.911c-.241.287-.434.5-.559.623Zm3.638,1.028a1.563,1.563,0,0,0-.4-2.142,1.6,1.6,0,0,0-1.2-.4,1.635,1.635,0,0,0-1,.371Z" transform="translate(-395.692 -317.833)" fill="#fff"/>
    <path id="Path_946" data-name="Path 946" d="M8753.292,796.842a2.137,2.137,0,0,1,.075-1.892l.014-.027a2.078,2.078,0,0,1,1.916-1.251,5.257,5.257,0,0,1,2.316.609l.7.346a.533.533,0,0,0,.814-.248c.242-.5.037-1.079-.705-1.445a1.9,1.9,0,0,0-2.051.187l-1.108-1.727a3.741,3.741,0,0,1,4.081-.1c1.87.919,2.58,2.517,1.655,4.391l-2.183,4.43-1.905-.94.435-.883-.021-.026a2.692,2.692,0,0,1-2.626-.014A2.83,2.83,0,0,1,8753.292,796.842Zm4.854-.5.078-.16-1.245-.613c-.595-.294-1.211-.248-1.475.288-.237.482.016.905.545,1.166A1.473,1.473,0,0,0,8758.146,796.34Z" transform="translate(-415.428 -330.66)" fill="#fff"/>
    <path id="Path_947" data-name="Path 947" d="M8782.422,808.056l1.261-4.233a1.345,1.345,0,0,0-.874-1.879,1.387,1.387,0,0,0-1.8,1.083l-1.26,4.232-2.209-.657,2.271-7.635,2.2.653-.3,1,.015,0a2.059,2.059,0,0,1,.971-.521,2.851,2.851,0,0,1,3.285,1.491,3.5,3.5,0,0,1,.05,2.365l-1.412,4.747Z" transform="translate(-431.183 -335.963)" fill="#fff"/>
    <path id="Path_948" data-name="Path 948" d="M8812.227,807.1l-.029,0a2.746,2.746,0,0,1-2.563.893,3.362,3.362,0,0,1-2.554-1.507,4.4,4.4,0,0,1-.726-3.02,4.239,4.239,0,0,1,1.379-2.716,3.4,3.4,0,0,1,2.823-.969,2.933,2.933,0,0,1,2.234,1.307l.028,0,.55-5.057,2.275.246-1.312,12.072-2.216-.24Zm-1.4-5.178a1.923,1.923,0,0,0-2.154,1.792,2.065,2.065,0,0,0,.4,1.529,1.982,1.982,0,0,0,2.759.3,2.059,2.059,0,0,0,.719-1.408A1.923,1.923,0,0,0,8810.827,801.921Z" transform="translate(-449.744 -334.068)" fill="#fff"/>
    <path id="Path_949" data-name="Path 949" d="M8849,805.812l.637,4.4c.134.93.641,1.444,1.562,1.311a1.365,1.365,0,0,0,1.186-1.71l-.637-4.4,2.279-.331,1.144,7.883-2.252.326-.141-.974-.016,0a2.515,2.515,0,0,1-2.012,1.453,2.668,2.668,0,0,1-2.263-.576,3.478,3.478,0,0,1-1.051-2.108l-.717-4.945Z" transform="translate(-475.791 -339.906)" fill="#fff"/>
    <path id="Path_950" data-name="Path 950" d="M8879.9,806.56l-1.4-4.186a1.345,1.345,0,0,0-1.795-1.035,1.392,1.392,0,0,0-.852,1.922l1.4,4.186-2.184.732-2.532-7.552,2.169-.727.333.99.015,0a2.055,2.055,0,0,1,.494-.984,2.541,2.541,0,0,1,1.239-.856,2.514,2.514,0,0,1,2.3.187,3.5,3.5,0,0,1,1.4,1.906l1.573,4.7Z" transform="translate(-492.441 -335.891)" fill="#fff"/>
    <path id="Path_951" data-name="Path 951" d="M8907.182,784.767l-.026.015a2.744,2.744,0,0,1-1.57,2.212,3.368,3.368,0,0,1-2.956.251,4.415,4.415,0,0,1-2.344-2.04,4.241,4.241,0,0,1-.448-3.013,3.4,3.4,0,0,1,1.74-2.425,2.927,2.927,0,0,1,2.576-.229l.026-.014-2.481-4.44,2-1.117,5.929,10.6-1.947,1.088Zm-4.141-3.41a1.924,1.924,0,0,0-.719,2.709,2.057,2.057,0,0,0,1.211,1.015,1.982,1.982,0,0,0,2.424-1.355,2.068,2.068,0,0,0-.232-1.563A1.923,1.923,0,0,0,8903.041,781.357Z" transform="translate(-509.979 -319.841)" fill="#fff"/>
    <path id="Path_952" data-name="Path 952" d="M8927.627,777.105a1.856,1.856,0,0,0,2.5-.037,2.115,2.115,0,0,0,.742-1.857l1.99-.214a3.546,3.546,0,0,1-1.464,3.557,4.38,4.38,0,0,1-3.122,1.072,4.205,4.205,0,0,1-3.806-4.575,4.041,4.041,0,0,1,1.494-2.826,3.818,3.818,0,0,1,2.888-.958,3.942,3.942,0,0,1,2.679,1.521c.236.287.406.515.51.662Zm1.681-3.388a1.564,1.564,0,0,0-2.183.005,1.6,1.6,0,0,0-.614,1.11,1.636,1.636,0,0,0,.182,1.051Z" transform="translate(-525.915 -318.089)" fill="#fff"/>
    <path id="Path_953" data-name="Path 953" d="M8945.276,755.264a3.291,3.291,0,0,0-.4.376c-1,1.109-.733,2.22.332,3.177l2.509,2.254-1.54,1.713-5.925-5.324,1.529-1.7.91.817.01-.011a2.43,2.43,0,0,1,.513-2.535,1.324,1.324,0,0,1,.351-.3Z" transform="translate(-536.107 -306.792)" fill="#fff"/>
    <path id="Path_954" data-name="Path 954" d="M8961.261,746.32a3.532,3.532,0,0,1-3.456,1.8l.121-1.974a1.811,1.811,0,0,0,1.8-.915c.324-.475.319-.943.061-1.12s-.6-.1-1.349.6c-1.4,1.312-2.643,1.591-3.714.858a2.2,2.2,0,0,1-.988-1.75,3.335,3.335,0,0,1,.617-2.171,3.264,3.264,0,0,1,3.046-1.6l-.116,1.941a1.522,1.522,0,0,0-1.436.752c-.269.39-.246.834.012,1.011.284.194.673.048,1.188-.44,1.472-1.409,2.715-1.828,3.858-1.045C8962.174,743.135,8962.361,744.712,8961.261,746.32Z" transform="translate(-544.795 -297.958)" fill="#fff"/>
    <path id="Path_955" data-name="Path 955" d="M8968.54,725.454a3.59,3.59,0,0,1-.354,1.03,2.78,2.78,0,0,1-4.088,1.441l-2.729-1.379-.639,1.265-1.8-.908.653-1.292-2.225-1.124,1.024-2.029,2.223,1.123.879-1.739,1.8.909-.879,1.739,2.479,1.251c.812.41,1.344.15,1.75-.654a2.058,2.058,0,0,0,.185-.5Z" transform="translate(-547.139 -286.23)" fill="#fff"/>
    <path id="Path_956" data-name="Path 956" d="M8979.041,709.669a2.145,2.145,0,0,1-1.885.18l-.027-.009a2.079,2.079,0,0,1-1.5-1.73,5.257,5.257,0,0,1,.292-2.378l.247-.742a.532.532,0,0,0-.355-.772c-.524-.175-1.074.108-1.337.893a1.9,1.9,0,0,0,.464,2.007l-1.562,1.332a3.752,3.752,0,0,1-.652-4.032c.662-1.975,2.148-2.9,4.129-2.234l4.686,1.564-.675,2.017-.934-.312-.023.023a2.692,2.692,0,0,1,.342,2.605A2.854,2.854,0,0,1,8979.041,709.669Zm-1.153-4.744-.171-.057-.438,1.317c-.211.63-.082,1.234.484,1.423.51.17.9-.137,1.083-.7A1.473,1.473,0,0,0,8977.888,704.925Z" transform="translate(-556.854 -273.415)" fill="#fff"/>
    <path id="Path_957" data-name="Path 957" d="M8986.723,678.492l-4.363-.672a1.345,1.345,0,0,0-1.742,1.121,1.389,1.389,0,0,0,1.318,1.637l4.363.672-.35,2.277-7.872-1.212.347-2.262,1.032.159,0-.015a2.068,2.068,0,0,1-.647-.891,2.553,2.553,0,0,1-.193-1.494,2.512,2.512,0,0,1,1.224-1.963,3.484,3.484,0,0,1,2.335-.373l4.9.753Z" transform="translate(-560.496 -256.297)" fill="#fff"/>
    <path id="Path_958" data-name="Path 958" d="M8980.425,648.242v.03a2.747,2.747,0,0,1,1.232,2.417,3.366,3.366,0,0,1-1.146,2.735,4.4,4.4,0,0,1-2.893,1.131,4.228,4.228,0,0,1-2.877-1,3.4,3.4,0,0,1-1.344-2.665,2.931,2.931,0,0,1,.989-2.391v-.029l-5.084.145-.064-2.288,12.138-.345.063,2.228Zm-4.94,2.09a1.924,1.924,0,0,0,2.07,1.891,2.06,2.06,0,0,0,1.459-.6,1.983,1.983,0,0,0-.078-2.775,2.062,2.062,0,0,0-1.492-.519A1.925,1.925,0,0,0,8975.484,650.332Z" transform="translate(-554.797 -237.315)" fill="#fff"/>
    <path id="Path_959" data-name="Path 959" d="M8307.34,1123.514a3.943,3.943,0,0,1,.089-1.19c.475-2.2,1.936-3.1,3.936-2.665l3.27.705.331-1.52,2.153.465-.333,1.552,2.667.574-.525,2.438-2.667-.575-.45,2.09-2.157-.464.452-2.09-2.971-.64c-.975-.21-1.468.214-1.675,1.18a2.087,2.087,0,0,0-.059.584Z" transform="translate(-127.974 -542.231)" fill="#fff"/>
    <path id="Path_960" data-name="Path 960" d="M8312.547,1141.015a4.705,4.705,0,0,1,1.131,3.438,4.658,4.658,0,0,1-1.493,3.257,4.253,4.253,0,0,1-3.289,1.176,4.355,4.355,0,0,1-3.2-1.561,4.729,4.729,0,0,1-1.115-3.421,4.655,4.655,0,0,1,1.478-3.273,4.546,4.546,0,0,1,6.491.385Zm-4.931,1.553a2.068,2.068,0,0,0-.706,1.484,2.113,2.113,0,0,0,2.115,2.245,2.18,2.18,0,0,0,1.617-.524,2.042,2.042,0,0,0,.722-1.484,2,2,0,0,0-.55-1.54,2.183,2.183,0,0,0-1.549-.7A2.251,2.251,0,0,0,8307.616,1142.568Z" transform="translate(-126.194 -555.515)" fill="#fff"/>
    <path id="Path_961" data-name="Path 961" d="M8318.463,1186.189a2.553,2.553,0,0,0-.035-.783,1.392,1.392,0,0,0-1.774-1.257l-.9.155.381,2.234-2.141.368-.38-2.219-6.457,1.108-.428-2.49,6.458-1.108-.263-1.532,2.142-.368.263,1.532.853-.147c2.239-.384,3.907.546,4.322,2.956a4,4,0,0,1,.021,1.2Z" transform="translate(-127.588 -581.857)" fill="#fff"/>
    <path id="Path_962" data-name="Path 962" d="M8316.134,1205.489a2.036,2.036,0,0,0-.962,2.567,2.319,2.319,0,0,0,1.6,1.5l-.576,2.116a3.88,3.88,0,0,1-3.041-2.921,4.794,4.794,0,0,1,.152-3.614,4.6,4.6,0,0,1,6.188-2.053,4.44,4.44,0,0,1,2.285,2.658,4.189,4.189,0,0,1-.179,3.332,4.3,4.3,0,0,1-2.621,2.124c-.389.127-.687.209-.879.255Zm2.784,3.074a1.713,1.713,0,0,0,.866-2.229,1.747,1.747,0,0,0-.886-1.073,1.775,1.775,0,0,0-1.145-.237Z" transform="translate(-131.548 -596.226)" fill="#fff"/>
    <path id="Path_963" data-name="Path 963" d="M8327.782,1233.354a2.031,2.031,0,0,0-.5,2.7,2.306,2.306,0,0,0,1.834,1.2l-.2,2.185a3.88,3.88,0,0,1-3.5-2.343,4.789,4.789,0,0,1-.484-3.584,4.6,4.6,0,0,1,5.73-3.105,4.451,4.451,0,0,1,2.717,2.217,4.2,4.2,0,0,1,.409,3.311,4.306,4.306,0,0,1-2.209,2.55c-.356.194-.64.327-.819.405Zm3.278,2.539a1.713,1.713,0,0,0,.461-2.346,1.742,1.742,0,0,0-1.059-.9,1.783,1.783,0,0,0-1.169-.033Z" transform="translate(-139.227 -614.034)" fill="#fff"/>
    <path id="Path_964" data-name="Path 964" d="M8338.679,1253.886l-1.482-2.066,10.816-7.763,1.482,2.065Z" transform="translate(-147.234 -622.971)" fill="#fff"/>
    <path id="Path_965" data-name="Path 965" d="M8358.529,1280.909a3.876,3.876,0,0,1-1.342-4.059l2.114.482a1.986,1.986,0,0,0,.672,2.111c.456.436.965.514,1.2.266s.217-.628-.409-1.565c-1.173-1.751-1.256-3.142-.273-4.17a2.407,2.407,0,0,1,2.067-.759,3.682,3.682,0,0,1,2.24,1.054,3.583,3.583,0,0,1,1.192,3.58l-2.078-.472a1.672,1.672,0,0,0-.561-1.687c-.375-.358-.858-.413-1.1-.166-.259.272-.171.718.268,1.362,1.265,1.841,1.5,3.261.447,4.361C8361.812,1282.464,8360.072,1282.385,8358.529,1280.909Z" transform="translate(-160.027 -641.764)" fill="#fff"/>
    <path id="Path_966" data-name="Path 966" d="M8376.625,1294.911a2.34,2.34,0,0,1,.385-2.038l.02-.027a2.273,2.273,0,0,1,2.277-1.047,5.775,5.775,0,0,1,2.415,1.034l.707.488a.582.582,0,0,0,.921-.137c.344-.5.213-1.163-.532-1.679a2.076,2.076,0,0,0-2.253-.128l-.927-2.05a4.106,4.106,0,0,1,4.443.549c1.878,1.3,2.4,3.144,1.094,5.026l-3.074,4.448-1.918-1.326.613-.887-.02-.032a2.955,2.955,0,0,1-2.846-.438A3.126,3.126,0,0,1,8376.625,1294.911Zm5.347.24.111-.161-1.253-.865c-.6-.414-1.274-.464-1.646.074-.332.484-.128.984.406,1.352A1.614,1.614,0,0,0,8381.972,1295.15Z" transform="translate(-172.602 -651.888)" fill="#fff"/>
    <path id="Path_967" data-name="Path 967" d="M8411.516,1296.3a2.661,2.661,0,0,0-.651-.433,1.392,1.392,0,0,0-2.06.693l-.409.82,2.033,1.007-.965,1.947-2.019-1-2.907,5.871-2.264-1.122,2.911-5.87-1.395-.69.964-1.948,1.395.691.385-.776c1-2.035,2.741-2.834,4.933-1.748a4.032,4.032,0,0,1,.979.686Z" transform="translate(-189.199 -654.697)" fill="#fff"/>
    <path id="Path_968" data-name="Path 968" d="M8424.6,1315.912a2.03,2.03,0,0,0,1.5,2.29,2.311,2.311,0,0,0,2.155-.4l1.369,1.714a3.884,3.884,0,0,1-4.152.734,4.8,4.8,0,0,1-2.827-2.254,4.359,4.359,0,0,1-.279-3.559,4.58,4.58,0,0,1,5.763-2.926,4.193,4.193,0,0,1,2.587,2.107,4.3,4.3,0,0,1,.168,3.37c-.125.388-.236.679-.312.86Zm4.122-.434a1.714,1.714,0,0,0-1.289-2.014,1.748,1.748,0,0,0-1.389.083,1.789,1.789,0,0,0-.867.785Z" transform="translate(-201.993 -666.316)" fill="#fff"/>
    <path id="Path_969" data-name="Path 969" d="M8463.984,1327.195a2.348,2.348,0,0,1-.712-1.948l0-.033a2.276,2.276,0,0,1,1.422-2.065,5.774,5.774,0,0,1,2.605-.346l.856.058q.678.047.721-.59c.041-.6-.411-1.109-1.314-1.171a2.079,2.079,0,0,0-2,1.042l-1.845-1.288a4.107,4.107,0,0,1,4.1-1.8c2.278.155,3.666,1.477,3.511,3.76l-.367,5.4-2.326-.158.073-1.076-.032-.019a2.956,2.956,0,0,1-2.671,1.079A3.127,3.127,0,0,1,8463.984,1327.195Zm4.718-2.529.012-.2-1.518-.1c-.727-.05-1.332.253-1.375.905-.041.586.392.911,1.037.955A1.615,1.615,0,0,0,8468.7,1324.666Z" transform="translate(-228.527 -671.322)" fill="#fff"/>
    <path id="Path_970" data-name="Path 970" d="M8498.839,1327.027l-.531-4.806c-.111-1.023-.7-1.632-1.684-1.523a1.523,1.523,0,0,0-1.358,1.859l.532,4.806-2.51.278-.96-8.67,2.5-.276.126,1.137.015,0a2.281,2.281,0,0,1,.761-.939,3.131,3.131,0,0,1,3.955.105,3.814,3.814,0,0,1,1.058,2.365l.6,5.39Z" transform="translate(-247.268 -670.804)" fill="#fff"/>
    <path id="Path_971" data-name="Path 971" d="M8529.95,1309.416l-.032.01a3.008,3.008,0,0,1-2.185,2.019,3.7,3.7,0,0,1-3.229-.394,4.821,4.821,0,0,1-2.053-2.713,4.629,4.629,0,0,1,.2-3.331,3.733,3.733,0,0,1,2.413-2.21,3.217,3.217,0,0,1,2.819.334l.03-.01-1.663-5.317,2.4-.749,3.97,12.692-2.333.73Zm-3.675-4.585a2.108,2.108,0,0,0-1.382,2.743,2.25,2.25,0,0,0,1.071,1.36,2.178,2.178,0,0,0,2.906-.909,2.259,2.259,0,0,0,.1-1.727A2.108,2.108,0,0,0,8526.275,1304.831Z" transform="translate(-266.551 -657.146)" fill="#fff"/>
    <path id="Path_972" data-name="Path 972" d="M8567.314,1299.054a3.981,3.981,0,0,1-.922.759c-1.917,1.179-3.575.742-4.645-1l-1.755-2.853-1.324.814-1.154-1.878,1.351-.832-1.429-2.324,2.125-1.306,1.429,2.323,1.821-1.12,1.154,1.879-1.819,1.12,1.59,2.588c.523.849,1.17.911,2.012.394a2.166,2.166,0,0,0,.461-.361Z" transform="translate(-289.253 -652.879)" fill="#fff"/>
    <path id="Path_973" data-name="Path 973" d="M8583.686,1290.979a2.346,2.346,0,0,1-1.854-.927l-.021-.025a2.275,2.275,0,0,1-.384-2.478,5.753,5.753,0,0,1,1.655-2.042l.662-.546a.584.584,0,0,0,.118-.924c-.386-.467-1.061-.523-1.76.054a2.083,2.083,0,0,0-.741,2.134l-2.224.33a4.11,4.11,0,0,1,1.744-4.125c1.761-1.452,3.676-1.444,5.131.321l3.439,4.173-1.8,1.483-.687-.832-.035.008a2.958,2.958,0,0,1-1.2,2.619A3.132,3.132,0,0,1,8583.686,1290.979Zm1.692-5.078-.126-.151-1.174.968c-.562.464-.795,1.1-.379,1.6.374.453.912.392,1.411-.02A1.615,1.615,0,0,0,8585.378,1285.9Z" transform="translate(-303.195 -647.039)" fill="#fff"/>
    <path id="Path_974" data-name="Path 974" d="M8598.741,1265.645l-1.636,1.925-10.147-8.622,1.635-1.925,6.115,5.194-.674-4.5,2.086-2.456.808,5.256,5.9.319-2.065,2.431-5.133-.344-.042.049Z" transform="translate(-308.289 -630.193)" fill="#fff"/>
    <path id="Path_975" data-name="Path 975" d="M8621.148,1244.068a2.034,2.034,0,0,0,2.563-.971,2.312,2.312,0,0,0,.076-2.191l1.97-.964a3.887,3.887,0,0,1-.186,4.213,4.792,4.792,0,0,1-2.814,2.269,4.356,4.356,0,0,1-3.534-.5,4.583,4.583,0,0,1-1.6-6.263,4.184,4.184,0,0,1,2.618-2.066,4.309,4.309,0,0,1,3.325.568c.351.208.609.38.771.493Zm.473-4.12a1.711,1.711,0,0,0-2.244.82,1.738,1.738,0,0,0-.221,1.373,1.777,1.777,0,0,0,.576,1.017Z" transform="translate(-327.648 -618.724)" fill="#fff"/>
    <path id="Path_976" data-name="Path 976" d="M8635.295,1204.9a3.728,3.728,0,0,0-.229.556c-.5,1.558.264,2.55,1.759,3.029l3.516,1.126-.771,2.406-8.309-2.66.765-2.391,1.276.409,0-.016a2.668,2.668,0,0,1-.624-2.767,1.425,1.425,0,0,1,.216-.458Z" transform="translate(-336.858 -597.23)" fill="#fff"/>
    <path id="Path_977" data-name="Path 977" d="M8626.415,1190.973a1.571,1.571,0,0,1-.645,3.074,1.59,1.59,0,0,1-1.234-1.847A1.565,1.565,0,0,1,8626.415,1190.973Zm10.929,5.189-8.538-1.791.523-2.489,8.536,1.792Z" transform="translate(-332.5 -588.718)" fill="#fff"/>
    <path id="Path_978" data-name="Path 978" d="M8648.517,1174.095a3.877,3.877,0,0,1-2.347,3.573l-.935-1.956a1.992,1.992,0,0,0,1.234-1.838c.059-.629-.2-1.076-.539-1.106s-.626.218-.972,1.293c-.645,2.006-1.682,2.936-3.1,2.806a2.4,2.4,0,0,1-1.878-1.148,3.672,3.672,0,0,1-.568-2.41,3.584,3.584,0,0,1,2.064-3.16l.922,1.922a1.671,1.671,0,0,0-.973,1.488c-.048.516.21.93.55.961.375.034.671-.313.9-1.056.655-2.135,1.623-3.2,3.138-3.062C8647.694,1170.555,8648.714,1171.966,8648.517,1174.095Z" transform="translate(-342.103 -575.313)" fill="#fff"/>
    <path id="Path_979" data-name="Path 979" d="M8640.967,1144.615l.173,2.521-13.286.914-.173-2.52,8-.551-3.627-2.754-.222-3.215,4.249,3.2,4.449-3.894.219,3.183-3.914,3.337,0,.065Z" transform="translate(-334.548 -554.785)" fill="#fff"/>
    <path id="Path_980" data-name="Path 980" d="M8644.792,1118.847a3.875,3.875,0,0,1-1.116,4.127l-1.5-1.567a1.992,1.992,0,0,0,.6-2.131c-.143-.616-.521-.961-.858-.884s-.527.4-.521,1.532c.014,2.107-.682,3.313-2.066,3.631a2.41,2.41,0,0,1-2.146-.506,3.682,3.682,0,0,1-1.288-2.113,3.584,3.584,0,0,1,.975-3.646l1.477,1.539a1.676,1.676,0,0,0-.462,1.717c.116.5.49.818.823.741.368-.084.539-.505.527-1.284-.043-2.233.543-3.547,2.027-3.886C8642.906,1115.74,8644.314,1116.762,8644.792,1118.847Z" transform="translate(-339.768 -540.421)" fill="#fff"/>
    <path id="Path_981" data-name="Path 981" d="M8922.524,1482.48a4.449,4.449,0,0,1-.656-1.157c-.927-2.33-.137-4.063,1.967-4.9l3.451-1.375-.64-1.609,2.271-.905.654,1.643,2.811-1.12,1.029,2.582-2.812,1.119.881,2.213-2.271.9-.881-2.213-3.131,1.247c-1.026.409-1.218,1.106-.81,2.129a2.494,2.494,0,0,0,.307.577Z" transform="translate(-524.003 -770.301)" fill="#fff"/>
    <path id="Path_982" data-name="Path 982" d="M8938.27,1498.948a5.27,5.27,0,0,1,3.163,2.5,5.21,5.21,0,0,1,.624,3.94,4.7,4.7,0,0,1-2.315,3.11,4.812,4.812,0,0,1-3.918.514,5.289,5.289,0,0,1-3.136-2.493,5.208,5.208,0,0,1-.647-3.947,5.021,5.021,0,0,1,6.229-3.625Zm-3.6,4.468a2.32,2.32,0,0,0,.262,1.812,2.348,2.348,0,0,0,3.335.788,2.407,2.407,0,0,0,1.171-1.479,2.271,2.271,0,0,0-.246-1.821,2.228,2.228,0,0,0-1.458-1.092,2.4,2.4,0,0,0-1.861.3A2.486,2.486,0,0,0,8934.672,1503.415Z" transform="translate(-530.718 -787.197)" fill="#fff"/>
    <path id="Path_983" data-name="Path 983" d="M8961.19,1542.4a5.109,5.109,0,0,1,5.2-5,5.094,5.094,0,0,1,3.622,1.607,4.525,4.525,0,0,1,1.04,5.341l-2.466-1.047a2.134,2.134,0,0,0-.428-2.484,2.459,2.459,0,0,0-3.512,3.43,2.155,2.155,0,0,0,2.512.523l1,2.5a4.656,4.656,0,0,1-5.391-1.216A5.073,5.073,0,0,1,8961.19,1542.4Z" transform="translate(-549.607 -812.127)" fill="#fff"/>
    <path id="Path_984" data-name="Path 984" d="M8990.962,1560.266a3.983,3.983,0,0,0-.5-.449c-1.447-1.108-2.771-.685-3.828.7l-2.49,3.25-2.234-1.711,5.882-7.679,2.22,1.7-.9,1.18.013.01a2.977,2.977,0,0,1,3.134.391,1.631,1.631,0,0,1,.4.4Z" transform="translate(-562.968 -823.073)" fill="#fff"/>
    <path id="Path_985" data-name="Path 985" d="M9007.459,1575.165a2.262,2.262,0,0,0,1.145,2.825,2.575,2.575,0,0,0,2.438.044l1.122,2.167a4.334,4.334,0,0,1-4.693-.126,5.363,5.363,0,0,1-2.594-3.081,4.816,4.816,0,0,1,.474-3.931,4.868,4.868,0,0,1,3.055-2.375,4.967,4.967,0,0,1,3.874.476,4.679,4.679,0,0,1,2.362,2.867,4.766,4.766,0,0,1-.551,3.7c-.222.395-.406.685-.528.866Zm4.6.445a1.906,1.906,0,0,0-.967-2.477,1.957,1.957,0,0,0-1.534-.219,1.977,1.977,0,0,0-1.116.66Z" transform="translate(-577.633 -833.469)" fill="#fff"/>
    <path id="Path_986" data-name="Path 986" d="M9033.869,1591.523a2.592,2.592,0,0,1-.166-2.295l.013-.034a2.521,2.521,0,0,1,2.156-1.761,6.465,6.465,0,0,1,2.895.434l.9.326a.647.647,0,0,0,.952-.406c.229-.63-.1-1.308-1.053-1.653a2.313,2.313,0,0,0-2.461.493l-1.581-1.941a4.585,4.585,0,0,1,4.942-.654c2.391.868,3.471,2.705,2.6,5.089l-2.044,5.635-2.442-.887.408-1.124-.029-.029a3.3,3.3,0,0,1-3.189.326A3.491,3.491,0,0,1,9033.869,1591.523Zm5.824-1.239.075-.2-1.6-.578c-.763-.277-1.5-.141-1.75.54-.223.613.142,1.092.819,1.338A1.793,1.793,0,0,0,9039.693,1590.284Z" transform="translate(-596.242 -841.93)" fill="#fff"/>
    <path id="Path_987" data-name="Path 987" d="M9071.274,1596.384a4.456,4.456,0,0,1-1.327-.093c-2.455-.514-3.462-2.132-3-4.348l.761-3.634-1.694-.356.5-2.393,1.732.363.619-2.961,2.721.57-.621,2.961,2.332.489-.5,2.393-2.333-.489-.69,3.3c-.227,1.081.25,1.625,1.327,1.851a2.476,2.476,0,0,0,.651.062Z" transform="translate(-617.202 -841.509)" fill="#fff"/>
    <path id="Path_988" data-name="Path 988" d="M9091.758,1600.951a2.262,2.262,0,0,0,2.263,2.04,2.581,2.581,0,0,0,2.215-1.029l1.954,1.46a4.333,4.333,0,0,1-4.272,1.94,5.357,5.357,0,0,1-3.681-1.635,4.81,4.81,0,0,1-1.293-3.742,4.864,4.864,0,0,1,1.705-3.473,4.97,4.97,0,0,1,3.693-1.268,4.677,4.677,0,0,1,3.377,1.544,4.748,4.748,0,0,1,1.123,3.569c-.025.452-.063.795-.1,1.01Zm4.327-1.611a1.908,1.908,0,0,0-1.954-1.8,1.956,1.956,0,0,0-1.474.475,1.989,1.989,0,0,0-.717,1.083Z" transform="translate(-631.979 -849.422)" fill="#fff"/>
    <path id="Path_989" data-name="Path 989" d="M9137,1602.4a2.6,2.6,0,0,1-1.293-1.9l-.009-.036a2.523,2.523,0,0,1,.983-2.6,6.448,6.448,0,0,1,2.72-1.076l.942-.168q.746-.134.621-.829c-.118-.66-.743-1.082-1.739-.9a2.31,2.31,0,0,0-1.882,1.662l-2.341-.887a4.578,4.578,0,0,1,3.944-3.044c2.506-.448,4.36.6,4.808,3.095l1.06,5.9-2.559.458-.21-1.176-.038-.011a3.3,3.3,0,0,1-2.6,1.882A3.5,3.5,0,0,1,9137,1602.4Zm4.418-3.993-.038-.214-1.672.3c-.8.143-1.37.632-1.242,1.345.115.641.67.874,1.381.746A1.8,1.8,0,0,0,9141.418,1598.408Z" transform="translate(-661.687 -847.666)" fill="#fff"/>
    <path id="Path_990" data-name="Path 990" d="M9173.175,1592.52l-1.821-5.044a1.637,1.637,0,0,0-2.217-1.2,1.691,1.691,0,0,0-.991,2.36l1.818,5.044-2.647.955-3.279-9.1,2.629-.949.43,1.193.019-.006a2.487,2.487,0,0,1,.58-1.211,3.117,3.117,0,0,1,1.492-1.077,3.08,3.08,0,0,1,2.817.158,4.224,4.224,0,0,1,1.761,2.274l2.038,5.657Z" transform="translate(-680.41 -841.676)" fill="#fff"/>
    <path id="Path_991" data-name="Path 991" d="M9206.262,1565.361l-.03.018a3.365,3.365,0,0,1-1.876,2.73,4.124,4.124,0,0,1-3.6.38,5.329,5.329,0,0,1-2.894-2.422,5.115,5.115,0,0,1-.6-3.653,4.161,4.161,0,0,1,2.078-2.994,3.59,3.59,0,0,1,3.141-.343l.03-.018-3.11-5.337,2.416-1.409,7.425,12.739-2.354,1.373Zm-5.112-4.043a2.344,2.344,0,0,0-.827,3.313,2.5,2.5,0,0,0,1.5,1.2,2.436,2.436,0,0,0,2.932-1.709,2.487,2.487,0,0,0-.312-1.895A2.34,2.34,0,0,0,9201.149,1561.318Z" transform="translate(-701.762 -821.745)" fill="#fff"/>
    <path id="Path_992" data-name="Path 992" d="M9234.821,1547.477l-2.1,1.9-9.888-10.96,2.1-1.9Z" transform="translate(-718.322 -811.559)" fill="#fff"/>
    <path id="Path_993" data-name="Path 993" d="M9251.966,1534.875a2.264,2.264,0,0,0,2.994-.575,2.577,2.577,0,0,0,.513-2.385l2.345-.679a4.335,4.335,0,0,1-1.031,4.58,5.359,5.359,0,0,1-3.525,1.948,4.821,4.821,0,0,1-3.766-1.226,4.876,4.876,0,0,1-1.738-3.458,4.96,4.96,0,0,1,1.219-3.708,4.67,4.67,0,0,1,3.268-1.762,4.755,4.755,0,0,1,3.523,1.257c.346.294.595.532.75.687Zm1.327-4.423a1.907,1.907,0,0,0-2.618.469,2.142,2.142,0,0,0-.077,2.686Z" transform="translate(-734.384 -805.807)" fill="#fff"/>
    <path id="Path_994" data-name="Path 994" d="M9273.009,1512.315a2.6,2.6,0,0,1-2.285-.27l-.03-.018a2.526,2.526,0,0,1-1.324-2.449,6.479,6.479,0,0,1,.971-2.761l.492-.822a.651.651,0,0,0-.22-1.013c-.575-.343-1.3-.147-1.822.721a2.32,2.32,0,0,0,.021,2.512l-2.2,1.186a4.583,4.583,0,0,1,.289-4.976c1.3-2.186,3.311-2.9,5.488-1.6l5.15,3.07-1.332,2.232-1.026-.612-.033.022a3.3,3.3,0,0,1-.28,3.194A3.5,3.5,0,0,1,9273.009,1512.315Zm-.117-5.954-.188-.112-.869,1.457c-.415.7-.422,1.45.2,1.821.56.334,1.1.067,1.469-.553A1.794,1.794,0,0,0,9272.892,1506.361Z" transform="translate(-746.16 -789.416)" fill="#fff"/>
    <path id="Path_995" data-name="Path 995" d="M9282.619,1477.973a3.854,3.854,0,0,0-.311.594c-.706,1.68.037,2.855,1.641,3.53l3.773,1.589-1.092,2.594-8.916-3.754,1.083-2.578,1.37.576.008-.017a2.974,2.974,0,0,1-.412-3.13,1.573,1.573,0,0,1,.284-.487Z" transform="translate(-753.713 -773.11)" fill="#fff"/>
    <path id="Path_996" data-name="Path 996" d="M9296.7,1455.23l-5.192-1.334a1.64,1.64,0,0,0-2.243,1.157,1.694,1.694,0,0,0,1.395,2.147l5.191,1.333-.7,2.727-9.366-2.406.7-2.709,1.228.315,0-.017a2.514,2.514,0,0,1-.674-1.16,3.142,3.142,0,0,1-.052-1.839,3.092,3.092,0,0,1,1.718-2.242,4.222,4.222,0,0,1,2.869-.176l5.824,1.5Z" transform="translate(-758.917 -756.324)" fill="#fff"/>
  </g>
</svg>
