<svg xmlns="http://www.w3.org/2000/svg" xmlns:xlink="http://www.w3.org/1999/xlink" width="486.604" height="662" viewBox="0 0 486.604 662"><defs><style>.a{fill:none;}.b{fill:#e06450;}.c{fill:#01566a;}.d{fill:#b7cdb7;}.e{fill:#681720;}.f{fill:#889d50;}.g{clip-path:url(#a);}.h{clip-path:url(#b);}.i{clip-path:url(#c);}</style><clipPath id="a"><path class="a" d="M0,0H105.9V105.5H0Z" transform="translate(0 0.116)"/></clipPath><clipPath id="b"><path class="a" d="M0,0H46.587V46.614H0Z" transform="translate(0.017 0.045)"/></clipPath><clipPath id="c"><path class="a" d="M0,0H32.6V51.891H0Z" transform="translate(0.118 0.109)"/></clipPath></defs><g transform="translate(0 -0.693)"><path class="b" d="M48.533,0,0,51.765,68.842,109S125.425,57.827,125,56.428,48.533,0,48.533,0" transform="translate(92 97.693)"/><path class="c" d="M70.043,111,0,52.826,49.579,0l.5.364c28.535,20.63,76.469,55.451,76.9,56.863.169.546.564,1.825-56.484,53.366l-.452.407ZM49.757,1.867,2.05,52.7,70,109.139c17.756-16.047,52.2-47.484,55.436-51.6-4.482-4.015-56.152-41.547-75.683-55.67Z" transform="translate(91 96.693)"/><path class="d" d="M124,62A62,62,0,1,1,62,0a62,62,0,0,1,62,62" transform="translate(209 215.693)"/><path class="b" d="M63.5,127A63.5,63.5,0,1,1,127,63.5,63.572,63.572,0,0,1,63.5,127Zm0-124.188A60.688,60.688,0,1,0,124.188,63.5,60.757,60.757,0,0,0,63.5,2.812Z" transform="translate(208 214.693)"/><path class="b" d="M49,15.517A25.568,25.568,0,0,0,15.659,1.961,25.17,25.17,0,0,0,1.979,35Z" transform="translate(209 225.693)"/><path class="c" d="M2.625,39h0l-.539-1.309a27.4,27.4,0,0,1-.068-20.806A26.8,26.8,0,0,1,16.45,2.119,26.2,26.2,0,0,1,36.93,2.049a26.8,26.8,0,0,1,14.53,14.663L52,18.026,2.626,39ZM26.772,2.848a23.523,23.523,0,0,0-9.242,1.9A24,24,0,0,0,4.608,17.961a24.635,24.635,0,0,0-.443,17.3L48.3,16.513A24.046,24.046,0,0,0,35.867,4.683,23.516,23.516,0,0,0,26.772,2.848Z" transform="translate(208 223.693)"/><path class="b" d="M65,32.5A32.5,32.5,0,1,1,32.5,0,32.5,32.5,0,0,1,65,32.5" transform="translate(136 11.693)"/><path class="c" d="M34,68A34,34,0,1,1,68,34,34.039,34.039,0,0,1,34,68Zm0-65.2A31.194,31.194,0,1,0,65.194,34,31.231,31.231,0,0,0,34,2.805Z" transform="translate(134 10.693)"/><path class="b" d="M64,19.318A33.458,33.458,0,0,0,19.046,3.4,34.37,34.37,0,0,0,3.353,49Z" transform="translate(252 208.693)"/><path class="c" d="M4.155,52v0h0l-.615-1.269A35.386,35.386,0,0,1,35.406,0,35.68,35.68,0,0,1,54.052,5.263,35.228,35.228,0,0,1,67.386,19.993L68,21.264ZM35.411,2.823A32.536,32.536,0,0,0,5.5,48.217L64.193,19.963A32.6,32.6,0,0,0,35.411,2.823Z" transform="translate(250 207.693)"/><path class="b" d="M0,18.616a13.956,13.956,0,0,0,19.567.735A13.586,13.586,0,0,0,20.308,0Z" transform="translate(182 61.693)"/><path class="c" d="M11.985,26c-.171,0-.357,0-.585-.011A15,15,0,0,1,.948,21.236L0,20.224,22.045,0l.948,1.014a14.765,14.765,0,0,1-.806,21.02A15.051,15.051,0,0,1,11.985,26ZM21.837,3.958h0L4,20.319a12.15,12.15,0,0,0,7.5,2.908c.161.006.325.009.485.009a12.244,12.244,0,0,0,8.3-3.229,12.02,12.02,0,0,0,1.547-16.05Z" transform="translate(180 59.693)"/><path class="b" d="M74.478,63.873c28.408,11.885,50.012,11.194,60.2,9.782A26.436,26.436,0,0,0,151.6,64.266q.276-.341.535-.682a24.612,24.612,0,0,0,4.156-20.632L143.21,0l-26.7,25.34,12.134,15.521L96.605,20.179S70.329,5.38,50.969,33.885L0,106" transform="translate(69 67.693)"/><path class="c" d="M1.4,108A1.4,1.4,0,0,1,.26,105.788l51.03-71.57C71.155,5.227,98.539,20.053,98.813,20.207l25.133,16.079-7-8.87a1.4,1.4,0,0,1,.141-1.884L143.823.383a1.406,1.406,0,0,1,2.308.608l13.1,42.629a25.552,25.552,0,0,1-4.387,21.736c-.183.238-.37.475-.564.71a27.822,27.822,0,0,1-17.845,9.82c-10.477,1.441-32.336,2.084-61-9.8A1.4,1.4,0,1,1,76.512,63.5c28.049,11.632,49.341,11.016,59.538,9.614A25.025,25.025,0,0,0,152.1,64.3c.173-.213.343-.426.507-.64a22.734,22.734,0,0,0,3.91-19.3L144.107,3.968,119.954,26.69l11.355,14.4a1.4,1.4,0,0,1-1.863,2.045L97.367,22.606C96.41,22.079,72,8.96,53.6,35.821L2.55,107.41A1.4,1.4,0,0,1,1.4,108" transform="translate(67 66.693)"/><path class="e" d="M131,116.234,14.767,131,0,14.766,116.234,0Z" transform="translate(65 253.693)"/><path class="e" d="M16.2,134a1.417,1.417,0,0,1-.864-.3,1.4,1.4,0,0,1-.536-.938L.012,16.375A1.411,1.411,0,0,1,1.234,14.8L117.624.011A1.458,1.458,0,0,1,117.8,0a1.415,1.415,0,0,1,1.4,1.233l14.786,116.392a1.428,1.428,0,0,1-.285,1.042,1.4,1.4,0,0,1-.939.536L16.374,133.988A1.467,1.467,0,0,1,16.2,134ZM116.58,2.989h0L2.989,17.42,17.42,131.011,131.01,116.581,116.58,2.989Z" transform="translate(63 252.693)"/><path class="f" d="M63.145,103,0,63.146,39.854,0,103,39.854Z" transform="translate(1 318.693)"/><g transform="translate(0 316.693)"><path class="a" d="M0,0H105.9V105.5H0Z" transform="translate(0 0.116)"/><g class="g"><path class="b" d="M64.6,105.5a1.412,1.412,0,0,1-.751-.216L.657,65.549a1.4,1.4,0,0,1-.439-1.935L40.1.653A1.413,1.413,0,0,1,42.047.216l63.2,39.739a1.4,1.4,0,0,1,.439,1.934L65.8,104.848A1.4,1.4,0,0,1,64.6,105.5ZM41.735,3.337,3.35,63.925l60.817,38.24,38.385-60.588Z" transform="translate(0 0.116)"/></g></g><path class="c" d="M188.534,27.8A40.9,40.9,0,0,0,123.795,9.246c-12.044,9.9-17.514,25.773-28.243,37.087C84.592,57.892,69.1,63.782,54.131,69.224S23.636,80.349,12.408,91.648-4.358,121.626,4.1,135.126c5.826,9.3,17.048,14.182,28,14.8s21.766-2.469,32.118-6.1c12.275-4.305,24.969-9.994,32.159-20.839,8.054-12.146,8.571-29.773,20.78-37.723,6.056-3.943,14.2-4.757,18.9-10.243,5.307-6.185,3.989-15.539,6.694-23.229a23.026,23.026,0,0,1,17.584-14.765c5.7-.943,11.563.327,17.3-.329,3.322-.379,13.66-.989,10.892-8.889" transform="translate(14 2.693)"/><path class="c" d="M36.382,153c-.975,0-1.962-.028-2.934-.082-12.625-.707-23.52-6.491-29.146-15.47-9.16-14.622-2.451-34.236,8.511-45.268C24.333,80.585,39.973,74.9,55.1,69.4c13.282-4.83,29.812-10.842,40.924-22.562,4.636-4.889,8.362-10.791,11.966-16.5l.007-.011c4.674-7.4,9.507-15.049,16.428-20.738a41.736,41.736,0,0,1,12.74-7.138A43.277,43.277,0,0,1,151.529,0,41.541,41.541,0,0,1,162.98,1.592,42.946,42.946,0,0,1,191.456,28.8a6.85,6.85,0,0,1-.367,6.153c-2.282,3.608-8.023,4.213-11.108,4.538l-.6.065a35.547,35.547,0,0,1-4.043.206c-1.43,0-2.861-.059-4.245-.117-1.368-.057-2.781-.116-4.137-.116a29.11,29.11,0,0,0-4.826.347,21.734,21.734,0,0,0-16.505,13.86,47.2,47.2,0,0,0-1.846,8.86c-.753,5.245-1.533,10.668-5.114,14.845-3.072,3.58-7.421,5.289-11.627,6.942l-.005,0-.009,0a42.151,42.151,0,0,0-7.581,3.569c-7.117,4.634-10.064,12.793-13.185,21.431l0,.006c-1.971,5.455-4.008,11.1-7.209,15.927-7.516,11.334-20.85,17.184-32.9,21.413C56.867,149.989,46.841,153,36.382,153ZM151.515,2.815a39.893,39.893,0,0,0-25.306,8.952c-6.57,5.4-11.07,12.527-15.835,20.069l-.005.008c-3.676,5.822-7.478,11.843-12.3,16.932-11.569,12.2-28.442,18.338-42,23.268l-.008,0-.006,0C41.222,77.443,25.885,83.02,14.81,94.166c-10.2,10.263-16.51,28.4-8.121,41.785,5.14,8.207,15.2,13.5,26.916,14.153.909.051,1.842.077,2.774.077,10.041,0,19.792-2.935,28.834-6.106C76.824,140,89.645,134.4,96.7,123.763c3.013-4.545,4.993-10.026,6.907-15.326,3.141-8.7,6.388-17.689,14.3-22.841a44.286,44.286,0,0,1,8.079-3.827l.017-.007c4.067-1.6,7.908-3.105,10.525-6.157,3.05-3.555,3.737-8.341,4.464-13.408a49.272,49.272,0,0,1,1.978-9.4,24.292,24.292,0,0,1,18.7-15.7,31.932,31.932,0,0,1,5.3-.383c1.425,0,2.853.059,4.233.117,1.434.059,2.789.115,4.143.115a32.744,32.744,0,0,0,3.709-.188l.625-.068c2.426-.257,7.474-.791,9.024-3.244a4.152,4.152,0,0,0,.085-3.722l-.005-.017A40.087,40.087,0,0,0,162.2,4.3,38.777,38.777,0,0,0,151.515,2.815Z" transform="translate(13 0.693)"/><path class="c" d="M21.8,23A21.828,21.828,0,0,1,0,1.2a1.2,1.2,0,1,1,2.393,0A19.431,19.431,0,0,0,21.8,20.606,1.2,1.2,0,0,1,21.8,23" transform="translate(172 43.693)"/><path class="e" d="M21.628,29.606,0,24.69,22.237,0,32,32Z" transform="translate(284 317.693)"/><path class="b" d="M37,36h0l-12.83-2.882L0,27.772,25.711,0,37,36ZM24.476,5.458,5.359,26.107l27.508,6.112L24.476,5.458Z" transform="translate(282 314.693)"/><path class="f" d="M34.445,40.367,0,55,6.469,0,51,33.4Z" transform="translate(248 387.693)"/><path class="b" d="M1.4,58a1.372,1.372,0,0,1-.835-.281,1.429,1.429,0,0,1-.552-1.3L6.378,1.25A1.417,1.417,0,0,1,7.216.113a1.386,1.386,0,0,1,1.39.172l43.837,33.5a1.423,1.423,0,0,1-.3,2.433L35.855,43.209,1.945,57.887A1.365,1.365,0,0,1,1.4,58ZM8.87,4.03l-5.806,50.3L34.757,40.607l0,0L48.83,34.571Z" transform="translate(247 385.693)"/><path class="b" d="M9.818,19.663S-2,78.639.3,76.965,58,47.582,58,47.582L32.653,0,2.43,4.987Z" transform="translate(201 173.693)"/><path class="c" d="M1.57,80a1.5,1.5,0,0,1-.8-.235c-1.088-.7-1.807-1.159,3.575-30.5C6.827,35.7,9.548,22,9.662,21.427L1.67,5.467,34.626,0,61,49.773l-1.285.647C37.652,61.512,4.2,78.462,2.487,79.7A1.548,1.548,0,0,1,1.57,80ZM33.092,3.109h0L5.893,7.622l6.712,13.407-.095.475C8.982,39.208,3.488,68.4,2.82,76.277c9.211-5,46.889-23.976,54.349-27.729L33.092,3.109Z" transform="translate(199 171.693)"/><path class="b" d="M103.118,44.094l-8.325-8.046a55.575,55.575,0,1,0-40.118,94.945q.658.011,1.316,0s81.317,1.488,109.149-82.624l29.6,54.162L258,66.34l-53.59-49.4S177.717-13.126,147.248,6.854c0,0-15.892,8.109-42.836,36.685" transform="translate(53 135.693)"/><path class="c" d="M57.823,133c-.212,0-.347,0-.409,0l-.475,0c-.285,0-.567,0-.839-.007C25.609,132.538.446,107.479.006,77.133A56.168,56.168,0,0,1,16.4,36.5a57.173,57.173,0,0,1,80.868-.292l7.691,7.386A272.364,272.364,0,0,1,135.81,15.209a90.425,90.425,0,0,1,12.241-8.25A40.606,40.606,0,0,1,170.384,0a42.389,42.389,0,0,1,14.5,2.665,56.091,56.091,0,0,1,11.565,5.881,59.583,59.583,0,0,1,10.562,8.719l53.53,49.019a1.4,1.4,0,0,1-.256,2.247l-63.305,35.986a1.414,1.414,0,0,1-.7.184,1.43,1.43,0,0,1-.383-.052,1.407,1.407,0,0,1-.852-.675L166.962,52.906c-6.693,18.728-16.76,34.651-29.919,47.328a114.193,114.193,0,0,1-34.883,22.938A127.671,127.671,0,0,1,72.8,131.62,98.416,98.416,0,0,1,57.823,133ZM56.976,22.4A53.9,53.9,0,0,0,18.4,38.464,53.389,53.389,0,0,0,2.822,77.092c.417,28.846,24.336,52.665,53.321,53.1.278,0,.552.007.816.007l.47,0h.206a120.307,120.307,0,0,0,43.53-9.646c21.431-9.1,49.96-28.89,64.166-71.54a1.4,1.4,0,0,1,1.208-.954c.041,0,.084-.006.126-.006a1.411,1.411,0,0,1,1.237.727l28.933,52.6,60.389-34.329L205.012,19.226l-.031-.033A59.034,59.034,0,0,0,188.108,6.961a41.078,41.078,0,0,0-17.591-4.233,38.124,38.124,0,0,0-20.984,6.616c-.033.021-.082.051-.131.076-.157.08-16.04,8.324-42.482,36.186a1.421,1.421,0,0,1-1.025.439,1.394,1.394,0,0,1-.165-.01c-.038.048-.077.094-.116.134a1.414,1.414,0,0,1-1.991.035l-8.331-8A53.962,53.962,0,0,0,56.976,22.4Z" transform="translate(51 134.693)"/><path class="c" d="M19,0C13.175,6.3,6.825,13.587,0,22" transform="translate(138 179.693)"/><path class="c" d="M1.4,25a1.37,1.37,0,0,1-.89-.327,1.438,1.438,0,0,1-.186-2C6.794,14.722,13.276,7.244,19.586.445A1.381,1.381,0,0,1,21.562.389a1.438,1.438,0,0,1,.056,2.01C15.348,9.151,8.909,16.583,2.475,24.485A1.384,1.384,0,0,1,1.4,25" transform="translate(137 177.693)"/><path class="c" d="M35.978,13.64c5.385-9.928,9.59-9.663,18.3-11.1,12.664-2.1,18.654-4.2,27.167-.542a32.419,32.419,0,0,1,15.523,13.7c2.541,4.56,3.828,9.742,7.289,13.781,5.953,6.944,17.116,5.2,20.989,13.249,2.723,5.658.7,12.136.582,18.3-.307,15.855,12.117,32.1,4.939,46.58-6.173,12.45-23.507,16.317-38.585,17.492a299.175,299.175,0,0,1-40.614.394c-16.06-.937-33.52-3.884-43.908-14.961a29,29,0,0,1-.376-38.853c7.457-8.24,20.829-7.816,16.84-23.115a19.5,19.5,0,0,0-2.382-5.176C19.018,38.935,14.846,19.64,35.978,13.64" transform="translate(329 200.693)"/><path class="b" d="M60,30A30,30,0,1,1,30,0,30,30,0,0,1,60,30" transform="translate(364 232.693)"/><path class="c" d="M1.183,21a1.183,1.183,0,0,1,0-2.366A17.471,17.471,0,0,0,18.634,1.183a1.183,1.183,0,0,1,2.366,0A19.839,19.839,0,0,1,1.183,21" transform="translate(370 261.693)"/><path class="b" d="M0,16.56A20.928,20.928,0,0,0,27.469,27.268,20.658,20.658,0,0,0,38.255,0Z" transform="translate(293 350.693)"/><path class="c" d="M20.885,32A22.163,22.163,0,0,1,.564,18.825L0,17.545,40.58,0l.562,1.281a21.631,21.631,0,0,1,.313,16.8A21.886,21.886,0,0,1,29.7,30.172,22.1,22.1,0,0,1,20.885,32ZM39.075,3.7,3.759,18.969a19.412,19.412,0,0,0,24.814,8.638A19.093,19.093,0,0,0,39.075,3.7Z" transform="translate(291 348.693)"/><path class="b" d="M27.122,3.3C-23.089,51.025,9.307,132.14,22.479,159.588c2.409,5.019,37.317,1.586,38.171-4.614C76.513,39.888,62.435,21.131,57.931,18.1a10.464,10.464,0,0,1-2.678-2.688A56.1,56.1,0,0,0,42.343,2.186,12.063,12.063,0,0,0,27.122,3.3" transform="translate(334 386.693)"/><path class="c" d="M34.681,164a35.885,35.885,0,0,1-7.656-.671c-2.341-.53-3.805-1.375-4.353-2.509C16.1,147.227,4.562,119.974,1.055,90.175-3.261,53.49,5.678,24.383,27.624,3.662A13.6,13.6,0,0,1,44.654,2.419a57.477,57.477,0,0,1,13.279,13.5,9.034,9.034,0,0,0,2.316,2.318c6.17,4.125,18.847,25.786,3.334,137.57-.551,3.974-8.9,6.089-15.809,7.163A92.241,92.241,0,0,1,34.681,164ZM36.9,2.8h0A10.631,10.631,0,0,0,29.57,5.7C8.3,25.776-.348,54.09,3.861,89.85c3.458,29.388,14.864,56.319,21.355,69.757.39.8,3.862,1.616,9.745,1.617A82.254,82.254,0,0,0,47.336,160.2c9.522-1.48,13.3-3.713,13.45-4.774C76.917,39.191,61.857,22.7,58.674,20.57a11.825,11.825,0,0,1-3.048-3.032A54.656,54.656,0,0,0,43.036,4.719,10.686,10.686,0,0,0,36.9,2.8Z" transform="translate(332 385.693)"/><path class="b" d="M31.334,1.226C52.46,11,86.549,44,55.546,161.906c-2.678,10.186-47.683,14.766-46.486-2.249,1.305-18.524,5.525-57.165-8.74-120.894a13.273,13.273,0,0,1,1.336-9.309L14.1,6.9A13.317,13.317,0,0,1,31.334,1.226" transform="translate(399 375.693)"/><path class="c" d="M31.052,174a49.507,49.507,0,0,1-7.967-.608c-9.474-1.56-14.446-5.918-14-12.269.083-1.174.178-2.431.278-3.763l.005-.069c1.511-20.018,4.323-57.278-9.015-116.779A14.665,14.665,0,0,1,1.836,30.2L14.31,7.628A14.817,14.817,0,0,1,27.288,0a14.511,14.511,0,0,1,6.133,1.349C44.141,6.3,58.479,17.385,65.916,42.053c8.72,28.925,6.214,69.9-7.448,121.777a8,8,0,0,1-3.236,4.208,24.213,24.213,0,0,1-6.451,3.2A56.578,56.578,0,0,1,31.052,174ZM27.283,2.818a11.983,11.983,0,0,0-10.5,6.171L4.312,31.564a11.839,11.839,0,0,0-1.2,8.331c13.425,59.894,10.6,97.433,9.075,117.6v.006c-.095,1.256-.195,2.585-.282,3.819-.448,6.341,7.1,8.541,11.637,9.288a44.831,44.831,0,0,0,7.235.549,57.082,57.082,0,0,0,16.327-2.364,24.6,24.6,0,0,0,5.845-2.558,5.888,5.888,0,0,0,2.783-3.121C68.741,113.723,82.985,27.362,32.233,3.906A11.709,11.709,0,0,0,27.283,2.818Z" transform="translate(398 373.693)"/><path class="b" d="M52.052,90.221,0,13.765,141,0,76.907,127Z" transform="translate(326 312.693)"/><path class="c" d="M78.416,129a1.412,1.412,0,0,1-1.166-.616L52.362,91.839.246,15.871a1.4,1.4,0,0,1,1.026-2.187L142.456.006c.044,0,.089-.006.133-.006a1.411,1.411,0,0,1,1.165.611,1.393,1.393,0,0,1,.095,1.425l-64.175,126.2A1.418,1.418,0,0,1,78.5,129ZM54.693,90.264,78.24,124.84,140.176,3.046,3.914,16.247,54.69,90.259l0,.005Z" transform="translate(325 311.693)"/><path class="b" d="M4.734,47A30.568,30.568,0,0,1,14.448,4.705,30.974,30.974,0,0,1,57,14.36Z" transform="translate(345 555.693)"/><path class="c" d="M5.651,51v0h0L4.91,49.8a32.783,32.783,0,0,1,10.1-44.81A31.65,31.65,0,0,1,32.021,0,32.024,32.024,0,0,1,59.257,15.224L60,16.418ZM32.027,2.826A28.908,28.908,0,0,0,16.494,7.385a29.85,29.85,0,0,0-9.938,39.7L56.125,15.547a29.238,29.238,0,0,0-24.1-12.721Z" transform="translate(343 553.693)"/><path class="b" d="M0,11.795A30.834,30.834,0,1,1,48.407,50Z" transform="translate(411 554.693)"/><path class="c" d="M51.17,53,0,13.342l.876-1.1A32.454,32.454,0,0,1,22.6.23,33.722,33.722,0,0,1,26.521,0,32.622,32.622,0,0,1,46.588,6.87,31.855,31.855,0,0,1,58.775,28.331,31.632,31.632,0,0,1,52.045,51.9L51.171,53ZM26.517,2.787h0A30.781,30.781,0,0,0,22.936,3,29.754,29.754,0,0,0,4,12.894L50.67,49.065a28.946,28.946,0,0,0-5.832-40,29.644,29.644,0,0,0-18.32-6.273Z" transform="translate(408 552.693)"/><path class="b" d="M0,7.137,35.377,43a24.9,24.9,0,0,0,.416-35.449A25.485,25.485,0,0,0,0,7.137" transform="translate(442 364.693)"/><g transform="translate(440 363.693)"><path class="a" d="M0,0H46.587V46.614H0Z" transform="translate(0.017 0.045)"/><g class="h"><path class="c" d="M37.5,46.614,0,8.553l1.01-.978A26.79,26.79,0,0,1,19.749,0l.322,0A26.767,26.767,0,0,1,38.949,8.013a26.447,26.447,0,0,1-.442,37.622l-1.01.979ZM19.721,2.8A23.706,23.706,0,0,0,4.02,8.627l33.5,34a23.666,23.666,0,0,0-.588-32.657A23.944,23.944,0,0,0,20.039,2.8Z" transform="translate(0.017 0.045)"/></g></g><path class="d" d="M35,17.5A17.5,17.5,0,1,1,17.5,0,17.5,17.5,0,0,1,35,17.5" transform="translate(95 399.693)"/><path class="b" d="M19,38A19,19,0,1,1,38,19,19.022,19.022,0,0,1,19,38ZM19,2.81A16.191,16.191,0,1,0,35.19,19,16.208,16.208,0,0,0,19,2.81Z" transform="translate(93 397.693)"/><path class="b" d="M91.192,26.72c18.915-3.058,40.1-3.637,55.232,8.112,1.92,1.491,3.838,3.433,3.919,5.861.135,4.034-4.534,6.3-6.712,9.7-3.251,5.072-.526,11.864-1.9,17.73-1.532,6.539-7.789,10.751-13.782,13.793A123.453,123.453,0,0,1,48.012,92.669C34.15,89.827,20.279,84.208,10.928,73.593-1.4,59.594-3.565,37.583,5.8,21.454S30.239.585,53.652.045c0,0,20.709-1.524,51.861,13.206,0,0,11.541-12.843,56.276-13.206,18.661-.151,38.479,5.279,47.848,21.41s12.67,55.646.338,69.644c-9.35,10.615-23.22,16.235-37.083,19.076-8.926,1.83-68.39,19.539-135.933,2.447,0,0-13.5-6.871-17.623-24.919" transform="translate(90 539.693)"/><path class="c" d="M99.035,123a247.7,247.7,0,0,1-60.962-7.411,1.435,1.435,0,0,1-.292-.11c-.576-.294-14.146-7.4-18.373-25.9a1.405,1.405,0,0,1,2.739-.626c3.727,16.32,15.437,23.213,16.783,23.956,40.548,10.234,84.825,9.679,131.615-1.648,1.625-.393,2.862-.692,3.679-.86,16.136-3.309,28.367-9.588,36.355-18.66,5.347-6.074,8.127-18.139,7.628-33.107-.452-13.549-3.643-27.3-8.128-35.023C199.458,5.315,176.239,2.75,163.4,2.864c-43.379.353-55.2,12.646-55.311,12.769a1.417,1.417,0,0,1-1.641.324C76.023,1.562,55.438,2.844,55.233,2.86,29.871,3.448,16.771,9.265,8.443,23.61-.668,39.3,1.423,60.583,13.415,74.2c7.988,9.074,20.218,15.351,36.354,18.66a121.486,121.486,0,0,0,79.109-10.646c4.9-2.485,11.576-6.524,13.065-12.883a25.929,25.929,0,0,0,.285-7.081c-.18-3.8-.367-7.73,1.8-11.116a21.235,21.235,0,0,1,3.144-3.579c1.836-1.8,3.422-3.349,3.355-5.335-.051-1.528-1.125-3.056-3.38-4.809-15.866-12.328-38.537-10.383-54.21-7.849a1.4,1.4,0,1,1-.448-2.773c16.189-2.618,39.649-4.6,56.382,8.4,1.866,1.45,4.359,3.745,4.464,6.933.108,3.222-2.179,5.461-4.2,7.436a18.912,18.912,0,0,0-2.744,3.086c-1.686,2.634-1.528,5.954-1.361,9.469a28.477,28.477,0,0,1-.357,7.855c-1.756,7.5-9.133,12.008-14.529,14.749A124.312,124.312,0,0,1,49.2,95.617c-16.747-3.436-29.5-10.015-37.9-19.557C-1.461,61.559-3.686,38.908,6.014,22.2,16.275,4.524,33.057.565,55.1.055,55.879,0,76.107-1.3,106.784,13.009c3.258-2.83,17.365-12.636,56.6-12.955,13.514-.115,37.8,2.622,49.13,22.145,9.422,16.229,13,56.828.178,71.4-8.4,9.542-21.151,16.122-37.9,19.557-.8.163-2,.455-3.584.839A306.767,306.767,0,0,1,99.035,123" transform="translate(88 537.693)"/><path class="b" d="M8.843,49A24.69,24.69,0,0,0,28.594,20.259,24.583,24.583,0,0,0,0,.407Z" transform="translate(95 612.693)"/><g transform="translate(93 610.693)"><path class="a" d="M0,0H32.6V51.891H0Z" transform="translate(0.118 0.109)"/><g class="i"><path class="c" d="M9.516,51.892,0,.679,1.394.427A26.695,26.695,0,0,1,22.98,5.972a26.1,26.1,0,0,1,5.895,6.751,25.624,25.624,0,0,1,3.286,8.627,25.548,25.548,0,0,1-4.254,19.48,26.312,26.312,0,0,1-17,10.812l-1.391.251ZM6.159,2.79h0A24.028,24.028,0,0,0,3.3,2.962l8.481,45.644a23.554,23.554,0,0,0,13.79-9.363,22.806,22.806,0,0,0,3.8-17.392A23.5,23.5,0,0,0,6.16,2.791Z" transform="translate(0.118 0.109)"/></g></g><path class="b" d="M84.665,1.872c18.973-3.046,40.225-3.623,55.4,8.08,1.925,1.485,3.85,3.419,3.931,5.838.135,4.018-4.548,6.278-6.732,9.664-3.261,5.052-.528,11.818-1.907,17.66-1.537,6.513-7.813,10.709-13.824,13.738a124.607,124.607,0,0,1-80.18,10.709c-13.9-2.831-27.818-8.428-37.2-19A41.408,41.408,0,0,1,0,42.985" transform="translate(96 564.693)"/><path class="c" d="M67.378,73a124.452,124.452,0,0,1-24.845-2.5c-16.8-3.423-29.592-9.979-38.018-19.49a42.992,42.992,0,0,1-4.3-5.776A1.394,1.394,0,0,1,.669,43.31a1.414,1.414,0,0,1,1.939.455,40.168,40.168,0,0,0,4.022,5.4c8.013,9.041,20.282,15.3,36.469,18.6a122.587,122.587,0,0,0,79.359-10.609c4.911-2.478,11.614-6.5,13.108-12.839a25.791,25.791,0,0,0,.286-7.058c-.182-3.787-.368-7.7,1.808-11.078a21.136,21.136,0,0,1,3.154-3.565c1.842-1.792,3.432-3.339,3.365-5.318-.051-1.523-1.129-3.046-3.392-4.793C124.871.215,102.129,2.152,86.406,4.679a1.4,1.4,0,1,1-.45-2.763C102.2-.7,125.732-2.666,142.516,10.289c1.872,1.445,4.373,3.733,4.48,6.911.109,3.211-2.186,5.443-4.211,7.411a18.747,18.747,0,0,0-2.751,3.075c-1.693,2.623-1.535,5.932-1.368,9.436a28.142,28.142,0,0,1-.357,7.828c-1.762,7.472-9.162,11.967-14.575,14.7A125.362,125.362,0,0,1,67.378,73" transform="translate(95 562.693)"/><path class="b" d="M27.937,0C11.425,1.144-1.051,15.709.07,32.535S15.488,62.072,32,60.928Z" transform="translate(224 563.693)"/><path class="c" d="M31.452,64a31.08,31.08,0,0,1-21.413-8.586A32.071,32.071,0,0,1,.073,34.179C-1.1,16.582,12.026,1.292,29.34.1L30.731,0,35,63.83l-1.391.1C32.9,63.975,32.174,64,31.452,64ZM28.141,3.054A28.99,28.99,0,0,0,2.855,33.988,28.962,28.962,0,0,0,31.462,61.166c.188,0,.378,0,.566-.006Z" transform="translate(223 561.693)"/><path class="b" d="M177,86.54A88.509,88.509,0,0,0,.017,90Z" transform="translate(103 455.693)"/><path class="c" d="M.046,93v0h0L.018,91.6A89.908,89.908,0,0,1,88.231.018C88.834.006,89.445,0,90.046,0a89.92,89.92,0,0,1,89.926,88.075l.028,1.4Zm90-90.192c-.587,0-1.162.005-1.756.016A87.1,87.1,0,0,0,2.814,90.138l174.307-3.412A87.112,87.112,0,0,0,90.041,2.808Z" transform="translate(101 453.693)"/><path class="c" d="M12.251,55.67a3.49,3.49,0,0,0,3.743-.5c7.624-1.759,12.895-7.367,19.779-11.32,5.545-3.184,11.664-3.539,17.915-3.588,7.186-.058,11.892.9,17,6.136,4.011,4.117,11.577,7.637,15.839,1.5,1.924-2.772.7-4.667.42-7.611-.322-3.357,1.022-3.467,2.9-6.032a9.87,9.87,0,0,0,2-4.193c1.773-10.171-12.111-8.606-13.8-15.579-.856-3.538-.14-6.547-3.059-9.322C72.315,2.626,68.6,2.289,65.1,2.792c-4.28.615-7.907,3.062-12.056,4.043C46.219,8.454,43.738,3.091,38.132.844c-6.9-2.765-14.1,1.563-15.78,8.551-.886,3.674-.045,8-2.916,10.882-1.924,1.934-5.249,2.773-7.7,3.7-3.45,1.3-7.588,2.441-9.885,5.543C-4.062,37.5,5.483,44.958,12.539,48.637" transform="translate(145 360.693)"/><path class="b" d="M65,32.5A32.5,32.5,0,1,1,32.5,0,32.5,32.5,0,0,1,65,32.5" transform="translate(159 382.693)"/><path class="c" d="M34,68A34,34,0,1,1,68,34,34.038,34.038,0,0,1,34,68Zm0-65.2A31.194,31.194,0,1,0,65.194,34,31.23,31.23,0,0,0,34,2.805Z" transform="translate(157 380.693)"/><path class="c" d="M27.5,29A27.575,27.575,0,0,1,0,1.414a1.409,1.409,0,1,1,2.818,0,24.682,24.682,0,1,0,49.363,0,1.409,1.409,0,1,1,2.818,0A27.575,27.575,0,0,1,27.5,29" transform="translate(164 413.693)"/><path class="b" d="M60,14.6A30.42,30.42,0,0,1,23.2,37.112,30.708,30.708,0,0,1,.881,0Z" transform="translate(95 455.693)"/><path class="c" d="M31.79,41a31.588,31.588,0,0,1-7.561-.923A32.056,32.056,0,0,1,.916,1.377L1.252,0,63,15.227l-.334,1.379A31.945,31.945,0,0,1,42.148,39.241,31.375,31.375,0,0,1,31.79,41ZM3.35,3.437A29.131,29.131,0,0,0,24.9,37.323a28.806,28.806,0,0,0,6.891.841A29.16,29.16,0,0,0,59.562,17.3Z" transform="translate(93 453.693)"/><path class="b" d="M0,14.6A30.42,30.42,0,0,0,36.8,37.112,30.708,30.708,0,0,0,59.119,0Z" transform="translate(230 455.693)"/><path class="c" d="M31.147,41a31.532,31.532,0,0,1-16.424-4.651A31.772,31.772,0,0,1,.334,16.6L0,15.225,61.74,0l.336,1.378a31.98,31.98,0,0,1-3.7,24.205A31.591,31.591,0,0,1,38.766,40.069,31.832,31.832,0,0,1,31.147,41ZM59.642,3.436,3.437,17.3A29.036,29.036,0,0,0,16.183,33.925,28.728,28.728,0,0,0,31.15,38.164a29.026,29.026,0,0,0,6.946-.85,28.792,28.792,0,0,0,17.877-13.2A29.245,29.245,0,0,0,59.642,3.436Z" transform="translate(228 453.693)"/></g></svg>