<svg xmlns="http://www.w3.org/2000/svg" xmlns:xlink="http://www.w3.org/1999/xlink" width="434.926" height="460.926" viewBox="0 0 434.926 460.926"><defs><style>.a{fill:none;}.b{clip-path:url(#a);}.c{fill:#b8cfb8;}.d{fill:#fefefe;}.e{fill:#00566a;}.f{fill:#681720;}.g{fill:#e5d5a7;}.h{fill:#cddad0;}.i{fill:#f8be5a;}.j{fill:#e16550;}.k{fill:#fff;}</style><clipPath id="a"><path class="a" d="M0,0H434.926V434.926H0Z" transform="translate(0 0.074)"/></clipPath></defs><g transform="translate(0 25.926)"><path class="a" d="M0,0H434.926V434.926H0Z" transform="translate(0 0.074)"/><g class="b"><path class="c" d="M217.466,434.926C97.553,434.926,0,337.372,0,217.463S97.553,0,217.466,0s217.46,97.554,217.46,217.463-97.553,217.463-217.46,217.463" transform="translate(0 0.074)"/></g></g><path class="d" d="M168.385,175.4C75.538,175.4,0,100.467,0,8.356a8.358,8.358,0,0,1,16.715,0c0,82.895,68.039,150.335,151.67,150.335S320.05,91.251,320.05,8.356a8.357,8.357,0,0,1,16.713,0c0,92.111-75.534,167.049-168.378,167.049" transform="translate(49.081 237.996)"/><path class="e" d="M431,213H0a274.492,274.492,0,0,1,8.985-43.658,265.182,265.182,0,0,1,15.464-40.326A253.761,253.761,0,0,1,45.717,92.79a239.468,239.468,0,0,1,26.4-31.359,223.353,223.353,0,0,1,30.852-25.726A207.95,207.95,0,0,1,137.6,16.38,196.681,196.681,0,0,1,175.336,4.223a193.132,193.132,0,0,1,80.332,0A196.671,196.671,0,0,1,293.4,16.38a207.943,207.943,0,0,1,34.631,19.325,223.35,223.35,0,0,1,30.852,25.726,239.483,239.483,0,0,1,26.4,31.359,253.764,253.764,0,0,1,21.268,36.226,265.187,265.187,0,0,1,15.464,40.326A274.5,274.5,0,0,1,431,213Z" transform="translate(2)"/><path class="f" d="M66.667,33.333A33.333,33.333,0,1,1,33.333,0,33.335,33.335,0,0,1,66.667,33.333" transform="translate(82.612 75.454)"/><path class="f" d="M19.451,9.726A9.726,9.726,0,1,1,9.725,0a9.726,9.726,0,0,1,9.726,9.726" transform="translate(322.567 99.062)"/><path class="g" d="M16.774,8.387A8.387,8.387,0,1,1,8.387,0a8.387,8.387,0,0,1,8.387,8.387" transform="translate(174.736 122.228)"/><path class="c" d="M33.19,16.595A16.595,16.595,0,1,1,16.594,0a16.6,16.6,0,0,1,16.6,16.595" transform="translate(188.876 41.409)"/><path class="h" d="M19.451,9.727A9.726,9.726,0,1,1,9.725,0a9.726,9.726,0,0,1,9.726,9.727" transform="translate(109.717 168.222)"/><path class="i" d="M38.9,19.452A19.451,19.451,0,1,1,19.451,0,19.452,19.452,0,0,1,38.9,19.452" transform="translate(63.16 99.21)"/><path class="j" d="M54.485,27.242A27.243,27.243,0,1,1,27.241,0,27.243,27.243,0,0,1,54.485,27.242" transform="translate(161.634 150.706)"/><path class="k" d="M40.017,45.362A25.126,25.126,0,1,1,50.25,25.124,25.012,25.012,0,0,1,40.017,45.362" transform="translate(307.167 139.083)"/><path class="i" d="M83.091,41.547A41.546,41.546,0,1,1,41.545,0,41.547,41.547,0,0,1,83.091,41.547" transform="translate(210.569 76.967)"/></svg>