<svg xmlns="http://www.w3.org/2000/svg" width="353" height="353" viewBox="0 0 353 353"><defs><style>.a{fill:none;}.b{fill:#e26551;}.c{fill:#cedbd1;}.d{fill:#01566b;}.e{fill:#691821;stroke:#b8cfb8;stroke-miterlimit:10;stroke-width:8px;}</style></defs><rect class="a" width="353" height="353"/><path class="b" d="M90.945,0,0,304.283,308.989,230.9Z"/><g transform="translate(171.77 22.636)"><path class="c" d="M607.048,93.042a83.563,83.563,0,1,0,104.164,55.817A83.564,83.564,0,0,0,607.048,93.042Zm36.259,119.981a41.777,41.777,0,1,1,27.905-52.076A41.777,41.777,0,0,1,643.307,213.023Z" transform="translate(-540.41 -82.847)"/><path class="d" d="M697.676,121.518l-17.22,5.2a6.292,6.292,0,0,1-6.912-2.327L649.933,91.872a6.291,6.291,0,0,1,3.271-9.719L694.98,69.528a6.292,6.292,0,0,1,8.109,6.171l-.944,39.945A6.292,6.292,0,0,1,697.676,121.518Z" transform="translate(-608.461 -69.255)"/><path class="d" d="M816.073,445.859l-17.221,5.2a6.292,6.292,0,0,0-4.466,5.765l-1.646,40.157a6.292,6.292,0,0,0,8.106,6.28l41.775-12.625a6.292,6.292,0,0,0,3.335-9.63l-22.909-32.737A6.291,6.291,0,0,0,816.073,445.859Z" transform="translate(-705.398 -322.584)"/><path class="d" d="M583.209,353.131l-5.2-17.22a6.292,6.292,0,0,0-5.765-4.466L532.082,329.8a6.291,6.291,0,0,0-6.28,8.106l12.625,41.775a6.292,6.292,0,0,0,9.63,3.335l32.737-22.909A6.292,6.292,0,0,0,583.209,353.131Z" transform="translate(-525.529 -244.636)"/><path class="d" d="M907.987,234.734l-5.2-17.221a6.291,6.291,0,0,1,2.327-6.911l32.524-23.611a6.292,6.292,0,0,1,9.719,3.271l12.625,41.775a6.292,6.292,0,0,1-6.171,8.11l-39.945-.944A6.292,6.292,0,0,1,907.987,234.734Z" transform="translate(-779.296 -147.699)"/></g><g transform="translate(49.485 220.643)"><path class="e" d="M151.4,703.064l117.945-28.01,23.233,97.829-14.94,3.548,7.092,18.957-29.051-13.742L174.63,800.894Z" transform="translate(-151.397 -675.054)"/></g></svg>