<svg xmlns="http://www.w3.org/2000/svg" width="357" height="357" viewBox="0 0 357 357"><defs><style>.a{fill:none;}.b{fill:#00566a;}.c{fill:#e26551;}.d{fill:#f8b644;}.e{fill:#b8cfb8;}</style></defs><g transform="translate(0.237)"><rect class="a" width="357" height="357" transform="translate(-0.237)"/><path class="b" d="M127.293,0,357.284,244.877,1.19,311.381Z" transform="translate(-0.811)"/><g transform="translate(99.626 159.655)"><circle class="c" cx="22.395" cy="22.395" r="22.395" transform="translate(18.336)"/><path class="c" d="M388.325,688.38a43.39,43.39,0,0,0-86.649,4.752Z" transform="translate(-301.621 -593.316)"/></g><g transform="translate(21.311 250.33)"><circle class="c" cx="22.395" cy="22.395" r="22.395" transform="translate(4.503)"/><path class="c" d="M150.043,949.5a43.39,43.39,0,0,0-84.285,20.655Z" transform="translate(-64.555 -864.166)"/></g><g transform="translate(180.813 239.856)"><circle class="c" cx="22.395" cy="22.395" r="22.395" transform="translate(31.353)"/><path class="c" d="M633.5,936.687a43.39,43.39,0,0,0-86.121-10.673Z" transform="translate(-547.382 -834.629)"/></g><g transform="translate(199.213 23.224)"><path class="d" d="M620.409,105.982,726.85,87.631,745.2,194.071l-62.4,10.758L662.4,229.369l-3.642-20.394-20,3.448Z" transform="translate(-614.685 -81.906)"/><path class="e" d="M643.14,203.09l-20.025,3.452L603.08,90.336,719.286,70.3l20.035,116.206L673.843,197.8,647.79,229.127ZM711.2,81.751,614.53,98.419,631.2,195.093l19.967-3.443L653.8,206.4l14.76-17.75,59.313-10.226Z" transform="translate(-603.08 -70.301)"/></g></g></svg>