<svg xmlns="http://www.w3.org/2000/svg" width="437.055" height="434.426" viewBox="0 0 437.055 434.426">
  <g id="Group_811" data-name="Group 811" transform="translate(-1416.845 771.307)">
    <path id="Fill_5" data-name="Fill 5" d="M88.107,44.053A44.053,44.053,0,1,1,44.054,0,44.053,44.053,0,0,1,88.107,44.053" transform="translate(1603.514 -747.874)" fill="#b8cfb8"/>
    <path id="Fill_29" data-name="Fill 29" d="M107.127,95.052,12.076,107.127,0,12.075,95.052,0Z" transform="matrix(0.978, -0.208, 0.208, 0.978, 1455.168, -730.98)" fill="#f8be5a"/>
    <path id="Fill_33" data-name="Fill 33" d="M48.207,78.634,0,48.208,30.426,0,78.634,30.426Z" transform="matrix(0.978, -0.208, 0.208, 0.978, 1416.845, -668.311)" fill="#889d50"/>
    <path id="Fill_44" data-name="Fill 44" d="M20.272,27.75,0,23.142,20.843,0l9.151,29.994Z" transform="translate(1663.501 -661.642)" fill="#681720"/>
    <path id="Fill_48" data-name="Fill 48" d="M32.286,37.837,0,51.552,6.064,0,47.8,31.3Z" transform="translate(1629.758 -596.031)" fill="#889d50"/>
    <path id="Fill_64" data-name="Fill 64" d="M33.722,12.785c5.047-9.306,8.989-9.057,17.15-10.408C62.742.412,68.356-1.56,76.336,1.868A30.387,30.387,0,0,1,90.886,14.71c2.382,4.275,3.588,9.131,6.832,12.917,5.579,6.509,16.043,4.873,19.673,12.418,2.552,5.3.657,11.375.545,17.155-.288,14.861,11.357,30.088,4.629,43.659-5.786,11.669-22.034,15.294-36.165,16.4a280.417,280.417,0,0,1-38.067.37c-15.053-.878-31.418-3.641-41.155-14.023a27.183,27.183,0,0,1-.352-36.417c6.99-7.724,19.523-7.326,15.784-21.666a18.274,18.274,0,0,0-2.233-4.852c-2.551-4.174-6.461-22.259,13.346-27.883" transform="translate(1705.68 -771.307)" fill="#e06450"/>
    <path id="Fill_66" data-name="Fill 66" d="M56.238,28.119A28.119,28.119,0,1,1,28.119,0,28.12,28.12,0,0,1,56.238,28.119" transform="translate(1738.486 -741.313)" fill="#01566a"/>
    <path id="Fill_68" data-name="Fill 68" d="M1.109,19.683a1.109,1.109,0,0,1,0-2.218A16.375,16.375,0,0,0,17.465,1.109a1.109,1.109,0,0,1,2.218,0A18.6,18.6,0,0,1,1.109,19.683" transform="translate(1744.109 -714.131)" fill="#e06450" stroke="#e06450" stroke-width="1"/>
    <path id="Fill_70" data-name="Fill 70" d="M0,15.521A19.616,19.616,0,0,0,25.747,25.559,19.362,19.362,0,0,0,35.857,0Z" transform="translate(1671.937 -630.711)" fill="#01566a" stroke="#e06450" stroke-width="4"/>
    <path id="Fill_74" data-name="Fill 74" d="M25.422,3.1c-47.063,44.73-16.7,120.76-4.353,146.486,2.258,4.7,34.977,1.486,35.778-4.324C71.716,37.387,58.521,19.806,54.3,16.966a9.808,9.808,0,0,1-2.51-2.52,52.587,52.587,0,0,0-12.1-12.4A11.307,11.307,0,0,0,25.422,3.1" transform="translate(1710.366 -596.968)" fill="#01566a" stroke="#e06450" stroke-width="4"/>
    <path id="Fill_78" data-name="Fill 78" d="M29.369,1.149c19.8,9.164,51.753,40.092,22.694,150.605C49.553,161.3,7.37,165.6,8.491,149.647,9.715,132.284,13.67,96.066.3,36.333a12.441,12.441,0,0,1,1.253-8.725L13.215,6.469a12.482,12.482,0,0,1,16.154-5.32" transform="translate(1771.291 -607.279)" fill="#01566a" stroke="#e06450" stroke-width="4"/>
    <path id="Fill_82" data-name="Fill 82" d="M48.788,84.564,0,12.9,132.16,0,72.086,119.038Z" transform="translate(1702.868 -666.329)" fill="#01566a" stroke="#e06450" stroke-width="4"/>
    <path id="Fill_86" data-name="Fill 86" d="M4.437,44.053a28.652,28.652,0,0,1,9.1-39.643,29.032,29.032,0,0,1,39.884,9.05Z" transform="translate(1720.677 -438.564)" fill="#01566a" stroke="#e06450" stroke-width="4"/>
    <path id="Fill_90" data-name="Fill 90" d="M0,11.055a28.9,28.9,0,1,1,45.372,35.81Z" transform="translate(1782.539 -439.501)" fill="#01566a" stroke="#e06450" stroke-width="4"/>
    <path id="Fill_94" data-name="Fill 94" d="M0,6.69,33.159,40.3a23.337,23.337,0,0,0,.39-33.227A23.887,23.887,0,0,0,0,6.69" transform="translate(1811.595 -617.589)" fill="#01566a" stroke="#e06450" stroke-width="4"/>
    <path id="Fill_99" data-name="Fill 99" d="M32.806,16.4A16.4,16.4,0,1,1,16.4,0a16.4,16.4,0,0,1,16.4,16.4" transform="translate(1482.602 -577.285)" fill="#b8cfb8"/>
    <path id="Fill_103" data-name="Fill 103" d="M85.475,25.045c17.729-2.867,37.588-3.409,51.769,7.6,1.8,1.4,3.6,3.217,3.673,5.494.126,3.781-4.25,5.908-6.291,9.094-3.047,4.754-.493,11.121-1.782,16.618-1.436,6.129-7.3,10.077-12.918,12.928A115.713,115.713,0,0,1,45,86.859C32.009,84.2,19.008,78.928,10.243,68.979c-11.557-13.121-13.585-33.752-4.8-48.87S28.343.548,50.288.042c0,0,19.41-1.429,48.61,12.378,0,0,10.818-12.038,52.747-12.378C169.136-.1,187.712,4.99,196.493,20.109s11.875,52.157.317,65.278c-8.763,9.95-21.764,15.217-34.758,17.88-8.366,1.715-64.1,18.314-127.41,2.294,0,0-12.653-6.44-16.518-23.357" transform="translate(1481.664 -453.561)" fill="#01566a" stroke="#e06450" stroke-width="4"/>
    <path id="Fill_107" data-name="Fill 107" d="M8.288,45.928A23.142,23.142,0,0,0,26.8,18.989,23.042,23.042,0,0,0,0,.382Z" transform="translate(1486.351 -385.138)" fill="#01566a" stroke="#e06450" stroke-width="4"/>
    <path id="Fill_112" data-name="Fill 112" d="M79.357,1.755c17.784-2.855,37.7-3.4,51.927,7.574,1.8,1.392,3.608,3.2,3.685,5.472.127,3.767-4.262,5.885-6.31,9.058-3.057,4.735-.495,11.077-1.788,16.553-1.441,6.1-7.323,10.037-12.958,12.877A116.8,116.8,0,0,1,38.761,63.327c-13.033-2.654-26.074-7.9-34.865-17.81A38.812,38.812,0,0,1,0,40.29" transform="translate(1487.288 -430.128)" fill="#01566a" stroke="#e06450" stroke-width="4"/>
    <path id="Fill_116" data-name="Fill 116" d="M26.185,0C10.709,1.072-.985,14.724.066,30.5S14.517,58.181,29.994,57.109Z" transform="translate(1607.263 -431.066)" fill="#01566a" stroke="#e06450" stroke-width="4"/>
    <path id="Fill_120" data-name="Fill 120" d="M165.9,81.114A82.959,82.959,0,0,0,.016,84.357Z" transform="translate(1493.849 -532.294)" fill="#01566a" stroke="#e06450" stroke-width="4"/>
    <path id="Fill_124" data-name="Fill 124" d="M11.483,52.18a3.271,3.271,0,0,0,3.508-.466C22.138,50.065,27.078,44.808,33.53,41.1c5.2-2.985,10.933-3.317,16.792-3.363,6.736-.054,11.146.84,15.932,5.751,3.76,3.858,10.851,7.159,14.846,1.4,1.8-2.6.658-4.375.393-7.134-.3-3.147.958-3.25,2.714-5.654a9.252,9.252,0,0,0,1.878-3.93c1.662-9.533-11.351-8.067-12.935-14.6-.8-3.316-.131-6.137-2.867-8.737-2.5-2.376-5.981-2.692-9.261-2.22-4.012.577-7.411,2.87-11.3,3.79C43.321,7.924,41,2.9,35.742.792,29.277-1.8,22.53,2.257,20.951,8.807c-.83,3.444-.042,7.5-2.734,10.2-1.8,1.812-4.92,2.6-7.221,3.464-3.234,1.216-7.112,2.288-9.265,5.2-5.539,7.481,3.408,14.473,10.022,17.921" transform="translate(1533.216 -621.338)" fill="#e06450"/>
    <path id="Fill_126" data-name="Fill 126" d="M60.925,30.462A30.462,30.462,0,1,1,30.462,0,30.463,30.463,0,0,1,60.925,30.462" transform="translate(1546.338 -600.718)" fill="#01566a" stroke="#e06450" stroke-width="4"/>
    <path id="Fill_130" data-name="Fill 130" d="M23.469,24.749A23.533,23.533,0,0,1,0,1.206a1.2,1.2,0,1,1,2.405,0,21.064,21.064,0,1,0,42.128,0,1.2,1.2,0,1,1,2.405,0A23.533,23.533,0,0,1,23.469,24.749" transform="translate(1553.331 -571.382)" fill="#e06450" stroke="#e06450" stroke-width="1"/>
    <path id="Fill_132" data-name="Fill 132" d="M56.238,13.687a28.512,28.512,0,0,1-34.492,21.1A28.783,28.783,0,0,1,.825,0Z" transform="translate(1486.351 -532.294)" fill="#01566a" stroke="#e06450" stroke-width="4"/>
    <path id="Fill_136" data-name="Fill 136" d="M0,13.687a28.512,28.512,0,0,0,34.492,21.1A28.783,28.783,0,0,0,55.413,0Z" transform="translate(1612.887 -532.294)" fill="#01566a" stroke="#e06450" stroke-width="4"/>
  </g>
</svg>
