<svg xmlns="http://www.w3.org/2000/svg" viewBox="0 0 1080 1080.23"><defs><style>.cls-1{fill:#00566a;}.cls-2{fill:#e16550;}.cls-3{fill:#889d50;}.cls-4{fill:#eaebe2;}.cls-5{fill:none;}</style></defs><g id="Layer_2" data-name="Layer 2"><g id="Layer_1-2" data-name="Layer 1"><rect id="Rectangle_20" data-name="Rectangle 20" class="cls-1" x="327.2" y="70.04" width="687.89" height="696.38" transform="translate(-72.32 148.77) rotate(-12.01)"/><path id="Path_1016" data-name="Path 1016" class="cls-2" d="M148,802.24h0l74.6,99,92.84-70A68.73,68.73,0,0,1,425.23,748.6l92.83-70-74.6-99h0a68,68,0,0,1-80.53,1.77,68.95,68.95,0,0,1-2.16-111.56h0l-65.3-86.67L207,449.84A68.72,68.72,0,0,0,97.22,532.55L0,605.8l65.3,86.67h0a68.73,68.73,0,0,0,81.45,110.72l1.25-1Z"/><g id="Polygon_2" data-name="Polygon 2"><path class="cls-3" d="M1046.56,1061h-466l233-399.41Z"/><path class="cls-4" d="M813.57,699.73,614,1041.82h399.1L813.57,699.73m0-76.23L1080,1080.23H547.15Z"/></g><rect class="cls-5" width="1080" height="1080"/></g></g></svg>