<svg id="Layer_1" data-name="Layer 1" xmlns="http://www.w3.org/2000/svg" viewBox="0 0 1080 1080"><defs><style>.cls-1{fill:none;}.cls-2{fill:#b8d0b9;}.cls-3{fill:#e26551;}.cls-4{fill:#f8b644;}.cls-5{fill:#ebece3;}</style></defs><rect class="cls-1" width="1080" height="1080"/><rect class="cls-2" x="272.05" y="320.05" width="641.53" height="641.53" transform="translate(157.12 -115.65) rotate(12.83)"/><path class="cls-3" d="M204.84,570.5a20.29,20.29,0,0,1-19.54-14.9l-112-405.14L35.94,185A20.29,20.29,0,0,1,8.4,155.22L70.27,98.05a20.28,20.28,0,0,1,33.32,9.5L224.41,544.8a20.31,20.31,0,0,1-19.57,25.7Z"/><path class="cls-3" d="M449.37,494.43a247.21,247.21,0,0,1-214.58-369.1,247.11,247.11,0,0,1,453.14,56.08h0a247.1,247.1,0,0,1-172.37,304A248.51,248.51,0,0,1,449.37,494.43Zm.32-453.76a206.55,206.55,0,0,0-199,261.55C281,412,395,476.61,504.75,446.28S679.14,302,648.82,192.21C623.55,100.78,540.24,40.67,449.69,40.67Z"/><circle class="cls-4" cx="873.14" cy="730" r="98.7"/><path class="cls-5" d="M873.14,843.73A113.74,113.74,0,1,1,986.87,730,113.86,113.86,0,0,1,873.14,843.73Zm0-197.39A83.66,83.66,0,1,0,956.79,730,83.76,83.76,0,0,0,873.14,646.34Z"/><path class="cls-4" d="M1064.33,1057.19c-2.62-105.58-90.33-189-195.91-186.42-104.79,2.6-187.95,89.08-186.46,193.9Z"/><path class="cls-5" d="M667.14,1080l-.22-15.12a206.27,206.27,0,0,1,412.45-8.06l.37,15.11ZM873.28,885.75c-1.49,0-3,0-4.49.06-91,2.26-164.94,74.25-171.36,163.51l350.86-6.86a176.22,176.22,0,0,0-175-156.71Z"/><path class="cls-4" d="M586.32,822.87a65.57,65.57,0,0,0,122.5,46.83Z"/><path class="cls-5" d="M647.72,926.61a80.7,80.7,0,0,1-75.48-109l5.32-14.15,150.75,57.63-5.47,14.09a80.76,80.76,0,0,1-75.12,51.47Zm-50.49-83.47a50.53,50.53,0,0,0,89.92,34.37Z"/></svg>