<svg xmlns="http://www.w3.org/2000/svg" viewBox="0 0 1080 1080"><defs><style>.cls-1{fill:#e26551;}.cls-2{fill:#004b5c;}.cls-3,.cls-4{fill:#ebece3;}.cls-3{stroke:#004b5c;stroke-linecap:round;stroke-linejoin:round;stroke-width:2px;}.cls-5{fill:#b8d0b9;}.cls-6{fill:#01566b;}.cls-7{fill:none;}</style></defs><g id="Layer_2" data-name="Layer 2"><g id="Layer_1-2" data-name="Layer 1"><g id="Group_972" data-name="Group 972"><circle id="Ellipse_15" data-name="Ellipse 15" class="cls-1" cx="618.09" cy="593.47" r="385.87"/><g id="Group_942" data-name="Group 942"><path id="Path_1019" data-name="Path 1019" class="cls-2" d="M232.22,824.47,0,857.48l316.52,220.87,234.25-95.67Z"/><path id="Path_1020" data-name="Path 1020" class="cls-2" d="M271.73,593.61,232.22,824.44,550.77,982.65l58.68-356.34Z"/><path id="Path_1021" data-name="Path 1021" class="cls-3" d="M118.86,921.34l58.05-22.83,92.82,58.74-53.22,30.67Z"/><path id="Path_1022" data-name="Path 1022" class="cls-4" d="M291.32,617.67l-34,193.16L531.41,943.21l50.48-298.15Z"/></g><g id="Group_944" data-name="Group 944"><g id="Path_1023" data-name="Path 1023"><path class="cls-5" d="M647.53,19.92h365.71a48.4,48.4,0,0,1,48.27,48.27V302.74A48.4,48.4,0,0,1,1013.24,351H774.43L659.65,436.35a5.14,5.14,0,0,1-8-5.35l19.62-80h-23.7a48.4,48.4,0,0,1-48.27-48.27V68.19A48.41,48.41,0,0,1,647.53,19.92Z"/><path class="cls-4" d="M656.62,455.83a23.62,23.62,0,0,1-23-29.16l14-57.17h-.12a67.05,67.05,0,0,1-66.76-66.7V68.19A67.06,67.06,0,0,1,647.48,1.43h365.76A67.05,67.05,0,0,1,1080,68.14v234.6a67.05,67.05,0,0,1-66.71,66.76H780.55L670.69,451.19A23.58,23.58,0,0,1,656.62,455.83Zm14.6-123.31h23.57L678.4,399.37l89.91-66.85h244.93A30,30,0,0,0,1043,302.69V68.19a30,30,0,0,0-29.83-29.78H647.55a30,30,0,0,0-29.81,29.83v234.5a30,30,0,0,0,29.83,29.78Z"/></g><g id="Group_943" data-name="Group 943"><circle id="Ellipse_16" data-name="Ellipse 16" class="cls-6" cx="747.04" cy="183.73" r="21.59"/><circle id="Ellipse_17" data-name="Ellipse 17" class="cls-6" cx="836.83" cy="183.73" r="21.59"/><circle id="Ellipse_18" data-name="Ellipse 18" class="cls-6" cx="926.63" cy="183.73" r="21.59"/></g></g></g><rect class="cls-7" width="1080" height="1080"/></g></g></svg>